<?xml version="1.0" encoding="UTF-8"?>
<!-- Created with Inkscape (http://www.inkscape.org/) -->
<svg width="96" height="86.221" version="1.1" viewBox="0 0 25.401 22.812" xmlns="http://www.w3.org/2000/svg" xmlns:cc="http://creativecommons.org/ns#" xmlns:dc="http://purl.org/dc/elements/1.1/" xmlns:rdf="http://www.w3.org/1999/02/22-rdf-syntax-ns#">
 <metadata>
  <rdf:RDF>
   <cc:Work rdf:about="">
    <dc:format>image/svg+xml</dc:format>
    <dc:type rdf:resource="http://purl.org/dc/dcmitype/StillImage"/>
    <dc:title/>
   </cc:Work>
  </rdf:RDF>
 </metadata>
 <g transform="translate(-131.99 -70.573)" fill="#fdd692" aria-label="好">
  <path d="m136.08 79.568c-0.0432 1.2956-0.21593 2.7927-0.87811 4.2898-0.47504-0.40306-0.96448-0.80613-1.4251-1.166 0.21593-0.8925 0.44625-1.929 0.64778-3.0086zm2.0441-0.12956 0.0144-1.1948-0.80613 0.04319v-0.92129h-1.238v0.99327l-1.4395 0.07198c0.15835-1.0365 0.3023-2.0585 0.40307-2.9942l-1.31-0.07198c-0.0864 0.96448-0.23033 2.0441-0.38867 3.1238l-1.3675 0.05758 0.14395 1.2812 0.99326-0.05758c-0.24471 1.2524-0.51822 2.4616-0.79173 3.3541 0.69097 0.57581 1.4827 1.238 2.2456 1.929-0.5902 0.92129-1.4107 1.8138-2.548 2.5911 0.3023 0.21593 0.74855 0.66218 0.95008 0.95008 1.1084-0.80613 1.9434-1.6986 2.5767-2.6343 0.61899 0.5902 1.166 1.166 1.5403 1.641l0.8925-1.1228c-0.41746-0.48944-1.0508-1.1084-1.7562-1.7418 0.83492-1.7994 1.0508-3.6852 1.0796-5.2398zm7.1256 1.8714h-3.0374v-1.2524c1.0221-0.8925 2.0009-2.1161 2.6919-3.1669l-0.92129-0.64778-0.3023 0.07198h-5.4126v1.2236h4.4913c-0.53262 0.79174-1.238 1.6554-1.9146 2.2456v1.5259h-3.1813v1.2812h3.1813v4.4337c0 0.21593-0.0864 0.27351-0.31669 0.27351-0.21593 0.01439-1.0221 0.01439-1.8138-0.0144 0.18714 0.35988 0.38867 0.9069 0.46065 1.2812 1.1228 0 1.857-0.02879 2.3608-0.23032 0.51822-0.20153 0.67657-0.56141 0.67657-1.2956v-4.4481h3.0374z" fill="#fdd692" stroke-width=".26458"/>
 </g>
 <g transform="translate(-1.5876 1.2304)" fill="#fdd692">
  <g transform="matrix(1.0024 0 0 1.0024 -130.58 -71.689)" stroke-width=".99756" aria-label="A">
   <path d="m154.75 90.888h-3.5871l-0.7505 2.1561h-1.6727l3.4981-9.2604h1.4438l3.5045 9.2604h-1.6791zm-3.1356-1.2975h2.684l-1.342-3.8415z" fill="#fdd692" stroke-width=".26393"/>
  </g>
  <g aria-label="Д">
   <path d="m26.914 9.2603h-1.388v-2.0705h-5.5464v2.0705h-1.4112l-0.04627-3.2388h0.67667q0.50317-0.48581 0.80391-1.4112 0.30074-0.93115 0.3875-2.1052l0.21977-3.7361h5.3093v7.2525h1.07zm-6.0611-3.2388h3.6089v-6.0727h-2.458l-0.1388 2.3712q-0.15616 2.377-1.0121 3.7014z" fill="#fdd692" stroke-width=".2646"/>
  </g>
 </g>
</svg>
