<?xml version="1.0" encoding="UTF-8"?>
<!-- Created with Inkscape (http://www.inkscape.org/) -->
<svg width="236.81" height="787.92" version="1.1" viewBox="0 0 62.656 208.47" xmlns="http://www.w3.org/2000/svg" xmlns:cc="http://creativecommons.org/ns#" xmlns:dc="http://purl.org/dc/elements/1.1/" xmlns:rdf="http://www.w3.org/1999/02/22-rdf-syntax-ns#">
 <metadata>
  <rdf:RDF>
   <cc:Work rdf:about="">
    <dc:format>image/svg+xml</dc:format>
    <dc:type rdf:resource="http://purl.org/dc/dcmitype/StillImage"/>
    <dc:title/>
   </cc:Work>
  </rdf:RDF>
 </metadata>
 <g transform="translate(-153.19 7.5061)">
  <path transform="matrix(.26458 0 0 .26458 153.19 131.48)" d="m34.338-525.28c3.7e-5 11.61 5.6828 22.785 11.154 33.729 5.4715 10.943 10.734 21.657 10.734 31.934 2.65e-4 10.276-5.2628 20.992-10.734 31.936-5.4716 10.943-11.154 22.116-11.154 33.727 0 11.61 5.6828 22.778 11.154 33.721 5.4715 10.943 10.734 21.665 10.734 31.941 2.27e-4 10.276-5.2628 20.99-10.734 31.934-5.4716 10.943-11.154 22.11-11.154 33.721 3.7e-5 11.61 5.6828 22.785 11.154 33.729 5.4715 10.943 10.734 21.657 10.734 31.934 2.65e-4 10.276-5.2628 20.99-10.734 31.934-5.4716 10.943-11.154 22.118-11.154 33.729 0 11.61 5.6828 22.778 11.154 33.721 5.4715 10.943 10.734 21.657 10.734 31.934 2.27e-4 10.276-5.2628 20.998-10.734 31.941-5.4716 10.943-11.154 22.11-11.154 33.721 3.7e-5 11.61 5.6828 22.785 11.154 33.729 5.4715 10.943 10.734 21.657 10.734 31.934 2.65e-4 10.276-5.2628 20.99-10.734 31.934-5.4716 10.943-11.154 22.118-11.154 33.729 0 11.61 5.6828 22.778 11.154 33.721 5.4715 10.943 10.734 21.657 10.734 31.934 2.27e-4 10.276-5.2628 20.998-10.734 31.941-5.4716 10.943-11.154 22.11-11.154 33.721h4.002c0-10.277 5.2608-20.99 10.732-31.934 5.4716-10.943 11.155-22.119 11.154-33.729-2.64e-4 -11.61-5.6828-22.778-11.154-33.721-5.4715-10.943-10.732-21.656-10.732-31.934 0-10.277 5.2608-20.998 10.732-31.941 5.4716-10.943 11.155-22.111 11.154-33.721-2.64e-4 -11.61-5.6828-22.785-11.154-33.729-5.4715-10.943-10.732-21.656-10.732-31.934 0-10.277 5.2608-20.99 10.732-31.934 5.4716-10.943 11.155-22.119 11.154-33.729-2.64e-4 -11.61-5.6828-22.778-11.154-33.721-5.4715-10.943-10.732-21.656-10.732-31.934 0-10.277 5.2608-20.998 10.732-31.941 5.4716-10.943 11.155-22.111 11.154-33.721-2.64e-4 -11.61-5.6828-22.778-11.154-33.721-5.4715-10.943-10.732-21.664-10.732-31.941 0-10.277 5.2608-20.99 10.732-31.934 5.4716-10.943 11.155-22.111 11.154-33.721-2.64e-4 -11.61-5.6828-22.785-11.154-33.729-5.4715-10.943-10.732-21.656-10.732-31.934 0-10.277 5.2608-20.99 10.732-31.934 5.4716-10.943 11.155-22.119 11.154-33.729-2.64e-4 -11.61-5.6828-22.778-11.154-33.721-5.4715-10.943-10.732-21.664-10.732-31.941zm29.514 0c0 11.61 5.6828 22.785 11.154 33.729 5.4715 10.943 10.732 21.657 10.732 31.934 2.65e-4 10.276-5.2608 20.992-10.732 31.936-5.4716 10.943-11.154 22.116-11.154 33.727 0 11.61 5.6828 22.778 11.154 33.721 5.4715 10.943 10.732 21.665 10.732 31.941 2.27e-4 10.276-5.2608 20.99-10.732 31.934-5.4716 10.943-11.154 22.11-11.154 33.721 0 11.61 5.6828 22.785 11.154 33.729 5.4715 10.943 10.732 21.657 10.732 31.934 2.65e-4 10.276-5.2608 20.99-10.732 31.934-5.4716 10.943-11.154 22.118-11.154 33.729 0 11.61 5.6828 22.778 11.154 33.721 5.4715 10.943 10.732 21.657 10.732 31.934 2.27e-4 10.276-5.2608 20.998-10.732 31.941-5.4716 10.943-11.154 22.11-11.154 33.721 0 11.61 5.6828 22.785 11.154 33.729 5.4715 10.943 10.732 21.657 10.732 31.934 2.65e-4 10.276-5.2608 20.99-10.732 31.934-5.4716 10.943-11.154 22.118-11.154 33.729 0 11.61 5.6828 22.778 11.154 33.721 5.4715 10.943 10.732 21.657 10.732 31.934 2.27e-4 10.276-5.2608 20.998-10.732 31.941-5.4716 10.943-11.154 22.11-11.154 33.721h4c0-10.277 5.2628-20.99 10.734-31.934 5.4716-10.943 11.155-22.119 11.154-33.729-2.64e-4 -11.61-5.6829-22.778-11.154-33.721-5.4715-10.943-10.734-21.656-10.734-31.934 0-10.277 5.2628-20.998 10.734-31.941 5.4716-10.943 11.155-22.111 11.154-33.721-2.64e-4 -11.61-5.6829-22.785-11.154-33.729-5.4715-10.943-10.734-21.656-10.734-31.934 0-10.277 5.2628-20.99 10.734-31.934 5.4716-10.943 11.155-22.119 11.154-33.729-2.64e-4 -11.61-5.6829-22.778-11.154-33.721-5.4715-10.943-10.734-21.656-10.734-31.934 0-10.277 5.2628-20.998 10.734-31.941 5.4716-10.943 11.155-22.111 11.154-33.721-2.64e-4 -11.61-5.6829-22.778-11.154-33.721-5.4715-10.943-10.734-21.664-10.734-31.941 0-10.277 5.2628-20.99 10.734-31.934 5.4716-10.943 11.155-22.111 11.154-33.721-2.64e-4 -11.61-5.6829-22.785-11.154-33.729-5.4715-10.943-10.734-21.656-10.734-31.934 0-10.277 5.2628-20.99 10.734-31.934 5.4716-10.943 11.155-22.119 11.154-33.729-2.64e-4 -11.61-5.6829-22.778-11.154-33.721-5.4715-10.943-10.734-21.664-10.734-31.941zm10.607 0c0 11.61 5.6828 22.785 11.154 33.729 5.4715 10.943 10.732 21.657 10.732 31.934 2.65e-4 10.276-5.2608 20.992-10.732 31.936-5.4716 10.943-11.154 22.116-11.154 33.727 0 11.61 5.6828 22.778 11.154 33.721s10.732 21.665 10.732 31.941c2.65e-4 10.276-5.2608 20.99-10.732 31.934-5.4716 10.943-11.154 22.11-11.154 33.721 0 11.61 5.6828 22.785 11.154 33.729s10.732 21.657 10.732 31.934c2.65e-4 10.276-5.2608 20.99-10.732 31.934-5.4716 10.943-11.154 22.118-11.154 33.729 0 11.61 5.6828 22.778 11.154 33.721 5.4715 10.943 10.732 21.657 10.732 31.934 2.65e-4 10.276-5.2608 20.998-10.732 31.941-5.4716 10.943-11.154 22.11-11.154 33.721 0 11.61 5.6828 22.785 11.154 33.729 5.4715 10.943 10.732 21.657 10.732 31.934 2.65e-4 10.276-5.2608 20.99-10.732 31.934-5.4716 10.943-11.154 22.118-11.154 33.729 0 11.61 5.6828 22.778 11.154 33.721s10.732 21.657 10.732 31.934c2.65e-4 10.276-5.2608 20.998-10.732 31.941-5.4716 10.943-11.154 22.11-11.154 33.721h4.002c0-10.277 5.253-20.99 10.725-31.934 5.4716-10.943 11.155-22.119 11.154-33.729-2.6e-4 -11.61-5.6828-22.778-11.154-33.721-5.4714-10.943-10.725-21.656-10.725-31.934 0-10.277 5.253-20.998 10.725-31.941 5.4716-10.943 11.155-22.111 11.154-33.721-2.6e-4 -11.61-5.6828-22.785-11.154-33.729-5.4715-10.943-10.725-21.656-10.725-31.934 0-10.277 5.253-20.99 10.725-31.934 5.4716-10.943 11.155-22.119 11.154-33.729-2.6e-4 -11.61-5.6828-22.778-11.154-33.721-5.4714-10.943-10.725-21.656-10.725-31.934 0-10.277 5.253-20.998 10.725-31.941 5.4716-10.943 11.155-22.111 11.154-33.721-2.6e-4 -11.61-5.6828-22.778-11.154-33.721-5.4715-10.943-10.725-21.664-10.725-31.941 0-10.277 5.253-20.99 10.725-31.934 5.4716-10.943 11.155-22.111 11.154-33.721-2.6e-4 -11.61-5.6828-22.785-11.154-33.729-5.4714-10.943-10.725-21.656-10.725-31.934 0-10.277 5.253-20.99 10.725-31.934 5.4716-10.943 11.155-22.119 11.154-33.729-2.6e-4 -11.61-5.6828-22.778-11.154-33.721-5.4715-10.943-10.725-21.664-10.725-31.941zm42.52 0c0 11.61 5.6828 22.785 11.154 33.729 5.4715 10.943 10.732 21.657 10.732 31.934 2.7e-4 10.276-5.2608 20.992-10.732 31.936-5.4716 10.943-11.154 22.116-11.154 33.727 0 11.61 5.6828 22.778 11.154 33.721s10.732 21.665 10.732 31.941c2.7e-4 10.276-5.2608 20.99-10.732 31.934-5.4716 10.943-11.154 22.11-11.154 33.721 0 11.61 5.6828 22.785 11.154 33.729s10.732 21.657 10.732 31.934c2.7e-4 10.276-5.2608 20.99-10.732 31.934-5.4716 10.943-11.154 22.118-11.154 33.729 0 11.61 5.6828 22.778 11.154 33.721 5.4715 10.943 10.732 21.657 10.732 31.934 2.7e-4 10.276-5.2608 20.998-10.732 31.941-5.4716 10.943-11.154 22.11-11.154 33.721 0 11.61 5.6828 22.785 11.154 33.729 5.4715 10.943 10.732 21.657 10.732 31.934 2.7e-4 10.276-5.2608 20.99-10.732 31.934-5.4716 10.943-11.154 22.118-11.154 33.729 0 11.61 5.6828 22.778 11.154 33.721s10.732 21.657 10.732 31.934c2.7e-4 10.276-5.2608 20.998-10.732 31.941-5.4716 10.943-11.154 22.11-11.154 33.721h4.002c0-10.277 5.253-20.99 10.725-31.934 5.4716-10.943 11.155-22.119 11.154-33.729-2.7e-4 -11.61-5.6828-22.778-11.154-33.721-5.4714-10.943-10.725-21.656-10.725-31.934 0-10.277 5.253-20.998 10.725-31.941 5.4716-10.943 11.155-22.111 11.154-33.721-2.7e-4 -11.61-5.6828-22.785-11.154-33.729-5.4715-10.943-10.725-21.656-10.725-31.934 0-10.277 5.253-20.99 10.725-31.934 5.4716-10.943 11.155-22.119 11.154-33.729-2.7e-4 -11.61-5.6828-22.778-11.154-33.721-5.4714-10.943-10.725-21.656-10.725-31.934 0-10.277 5.253-20.998 10.725-31.941 5.4716-10.943 11.155-22.111 11.154-33.721-2.7e-4 -11.61-5.6828-22.778-11.154-33.721-5.4715-10.943-10.725-21.664-10.725-31.941 0-10.277 5.253-20.99 10.725-31.934 5.4716-10.943 11.155-22.111 11.154-33.721-2.7e-4 -11.61-5.6828-22.785-11.154-33.729-5.4714-10.943-10.725-21.656-10.725-31.934 0-10.277 5.253-20.99 10.725-31.934 5.4716-10.943 11.155-22.119 11.154-33.729-2.7e-4 -11.61-5.6828-22.778-11.154-33.721-5.4715-10.943-10.725-21.664-10.725-31.941zm23.23 0c4e-5 11.61 5.6828 22.785 11.154 33.729 5.4715 10.943 10.734 21.657 10.734 31.934 2.2e-4 10.276-5.2628 20.992-10.734 31.936-5.4716 10.943-11.154 22.116-11.154 33.727 0 11.61 5.6828 22.778 11.154 33.721 5.4715 10.943 10.734 21.665 10.734 31.941 2.2e-4 10.276-5.2628 20.99-10.734 31.934-5.4716 10.943-11.154 22.11-11.154 33.721 4e-5 11.61 5.6828 22.785 11.154 33.729 5.4715 10.943 10.734 21.657 10.734 31.934 2.2e-4 10.276-5.2628 20.99-10.734 31.934-5.4716 10.943-11.154 22.118-11.154 33.729 0 11.61 5.6828 22.778 11.154 33.721 5.4715 10.943 10.734 21.657 10.734 31.934 2.2e-4 10.276-5.2628 20.998-10.734 31.941-5.4716 10.943-11.154 22.11-11.154 33.721 4e-5 11.61 5.6828 22.785 11.154 33.729 5.4715 10.943 10.734 21.657 10.734 31.934 2.2e-4 10.276-5.2628 20.99-10.734 31.934-5.4716 10.943-11.154 22.118-11.154 33.729 0 11.61 5.6828 22.778 11.154 33.721 5.4715 10.943 10.734 21.657 10.734 31.934 2.2e-4 10.276-5.2628 20.998-10.734 31.941-5.4716 10.943-11.154 22.11-11.154 33.721h4.002c0-10.277 5.2608-20.99 10.732-31.934 5.4716-10.943 11.155-22.119 11.154-33.729-2.7e-4 -11.61-5.6828-22.778-11.154-33.721-5.4715-10.943-10.732-21.656-10.732-31.934 0-10.277 5.2608-20.998 10.732-31.941 5.4716-10.943 11.155-22.111 11.154-33.721-2.7e-4 -11.61-5.6828-22.785-11.154-33.729-5.4715-10.943-10.732-21.656-10.732-31.934 0-10.277 5.2608-20.99 10.732-31.934 5.4716-10.943 11.155-22.119 11.154-33.729-2.7e-4 -11.61-5.6828-22.778-11.154-33.721-5.4715-10.943-10.732-21.656-10.732-31.934 0-10.277 5.2608-20.998 10.732-31.941s11.155-22.111 11.154-33.721c-2.7e-4 -11.61-5.6828-22.778-11.154-33.721-5.4715-10.943-10.732-21.664-10.732-31.941 0-10.277 5.2608-20.99 10.732-31.934s11.155-22.111 11.154-33.721c-2.7e-4 -11.61-5.6828-22.785-11.154-33.729s-10.732-21.656-10.732-31.934c0-10.277 5.2608-20.99 10.732-31.934s11.155-22.119 11.154-33.729c-2.7e-4 -11.61-5.6828-22.778-11.154-33.721-5.4715-10.943-10.732-21.664-10.732-31.941zm38.387 0c4e-5 11.61 5.6828 22.785 11.154 33.729 5.4715 10.943 10.732 21.657 10.732 31.934 2.3e-4 10.276-5.2608 20.992-10.732 31.936-5.4716 10.943-11.154 22.116-11.154 33.727 0 11.61 5.6828 22.778 11.154 33.721 5.4715 10.943 10.732 21.665 10.732 31.941 2.3e-4 10.276-5.2608 20.99-10.732 31.934-5.4716 10.943-11.154 22.11-11.154 33.721 4e-5 11.61 5.6828 22.785 11.154 33.729 5.4715 10.943 10.732 21.657 10.732 31.934 2.3e-4 10.276-5.2608 20.99-10.732 31.934-5.4716 10.943-11.154 22.118-11.154 33.729 0 11.61 5.6828 22.778 11.154 33.721 5.4715 10.943 10.732 21.657 10.732 31.934 2.3e-4 10.276-5.2608 20.998-10.732 31.941-5.4716 10.943-11.154 22.11-11.154 33.721 4e-5 11.61 5.6828 22.785 11.154 33.729 5.4715 10.943 10.732 21.657 10.732 31.934 2.3e-4 10.276-5.2608 20.99-10.732 31.934-5.4716 10.943-11.154 22.118-11.154 33.729 0 11.61 5.6828 22.778 11.154 33.721 5.4715 10.943 10.732 21.657 10.732 31.934 2.3e-4 10.276-5.2608 20.998-10.732 31.941-5.4716 10.943-11.154 22.11-11.154 33.721h4c0-10.277 5.2628-20.99 10.734-31.934 5.4716-10.943 11.155-22.119 11.154-33.729-2.7e-4 -11.61-5.6828-22.778-11.154-33.721-5.4715-10.943-10.734-21.656-10.734-31.934 0-10.277 5.2628-20.998 10.734-31.941 5.4716-10.943 11.155-22.111 11.154-33.721-2.7e-4 -11.61-5.6828-22.785-11.154-33.729-5.4715-10.943-10.734-21.656-10.734-31.934 0-10.277 5.2628-20.99 10.734-31.934 5.4716-10.943 11.155-22.119 11.154-33.729-2.7e-4 -11.61-5.6828-22.778-11.154-33.721-5.4715-10.943-10.734-21.656-10.734-31.934 0-10.277 5.2628-20.998 10.734-31.941 5.4716-10.943 11.155-22.111 11.154-33.721-2.7e-4 -11.61-5.6828-22.778-11.154-33.721-5.4715-10.943-10.734-21.664-10.734-31.941 0-10.277 5.2628-20.99 10.734-31.934 5.4716-10.943 11.155-22.111 11.154-33.721-2.7e-4 -11.61-5.6828-22.785-11.154-33.729s-10.734-21.656-10.734-31.934c0-10.277 5.2628-20.99 10.734-31.934 5.4716-10.943 11.155-22.119 11.154-33.729-2.7e-4 -11.61-5.6828-22.778-11.154-33.721-5.4715-10.943-10.734-21.664-10.734-31.941zm32.324 0c0 11.61 5.6828 22.785 11.154 33.729 5.4715 10.943 10.734 21.657 10.734 31.934 2.7e-4 10.276-5.2628 20.992-10.734 31.936-5.4716 10.943-11.154 22.116-11.154 33.727 0 11.61 5.6828 22.778 11.154 33.721s10.734 21.665 10.734 31.941c2.3e-4 10.276-5.2628 20.99-10.734 31.934-5.4716 10.943-11.154 22.11-11.154 33.721 0 11.61 5.6828 22.785 11.154 33.729s10.734 21.657 10.734 31.934c2.7e-4 10.276-5.2628 20.99-10.734 31.934-5.4716 10.943-11.154 22.118-11.154 33.729 0 11.61 5.6828 22.778 11.154 33.721 5.4715 10.943 10.734 21.657 10.734 31.934 2.3e-4 10.276-5.2628 20.998-10.734 31.941-5.4716 10.943-11.154 22.11-11.154 33.721 0 11.61 5.6828 22.785 11.154 33.729 5.4715 10.943 10.734 21.657 10.734 31.934 2.7e-4 10.276-5.2628 20.99-10.734 31.934-5.4716 10.943-11.154 22.118-11.154 33.729 0 11.61 5.6828 22.778 11.154 33.721s10.734 21.657 10.734 31.934c2.3e-4 10.276-5.2628 20.998-10.734 31.941-5.4716 10.943-11.154 22.11-11.154 33.721h4.002c0-10.277 5.2608-20.99 10.732-31.934 5.4716-10.943 11.155-22.119 11.154-33.729-2.6e-4 -11.61-5.6828-22.778-11.154-33.721-5.4714-10.943-10.732-21.656-10.732-31.934 0-10.277 5.2608-20.998 10.732-31.941 5.4716-10.943 11.155-22.111 11.154-33.721-2.6e-4 -11.61-5.6828-22.785-11.154-33.729-5.4714-10.943-10.732-21.656-10.732-31.934 0-10.277 5.2608-20.99 10.732-31.934 5.4716-10.943 11.155-22.119 11.154-33.729-2.6e-4 -11.61-5.6828-22.778-11.154-33.721-5.4714-10.943-10.732-21.656-10.732-31.934 0-10.277 5.2608-20.998 10.732-31.941 5.4716-10.943 11.155-22.111 11.154-33.721-2.6e-4 -11.61-5.6828-22.778-11.154-33.721-5.4714-10.943-10.732-21.664-10.732-31.941 0-10.277 5.2608-20.99 10.732-31.934 5.4716-10.943 11.155-22.111 11.154-33.721-2.6e-4 -11.61-5.6828-22.785-11.154-33.729-5.4714-10.943-10.732-21.656-10.732-31.934 0-10.277 5.2608-20.99 10.732-31.934 5.4716-10.943 11.155-22.119 11.154-33.729-2.6e-4 -11.61-5.6828-22.778-11.154-33.721-5.4714-10.943-10.732-21.664-10.732-31.941zm-210.92 8e-3c0 11.61 5.6828 22.778 11.154 33.721 5.4715 10.943 10.732 21.657 10.732 31.934 2.64e-4 10.276-5.2608 20.992-10.732 31.936-5.4716 10.943-11.154 22.116-11.154 33.727 0 11.61 5.6828 22.785 11.154 33.729 5.4715 10.943 10.732 21.657 10.732 31.934 2.26e-4 10.276-5.2608 20.99-10.732 31.934-5.4716 10.943-11.154 22.11-11.154 33.721 0 11.61 5.6828 22.785 11.154 33.729 5.4715 10.943 10.732 21.657 10.732 31.934 2.64e-4 10.276-5.2608 20.99-10.732 31.934-5.4716 10.943-11.154 22.118-11.154 33.729 0 11.61 5.6828 22.778 11.154 33.721 5.4715 10.943 10.732 21.665 10.732 31.941 2.26e-4 10.276-5.2608 20.99-10.732 31.934-5.4716 10.943-11.154 22.11-11.154 33.721 0 11.61 5.6828 22.785 11.154 33.729 5.4715 10.943 10.732 21.657 10.732 31.934 2.64e-4 10.276-5.2608 20.99-10.732 31.934-5.4716 10.943-11.154 22.118-11.154 33.729 0 11.61 5.6828 22.778 11.154 33.721 5.4715 10.943 10.732 21.657 10.732 31.934 2.26e-4 10.276-5.2608 20.998-10.732 31.941-5.4716 10.943-11.154 22.11-11.154 33.721h4c0-10.277 5.2628-20.99 10.734-31.934 5.4716-10.943 11.155-22.119 11.154-33.729-2.65e-4 -11.61-5.6828-22.778-11.154-33.721-5.4714-10.943-10.734-21.657-10.734-31.934 0-10.277 5.2628-20.99 10.734-31.934 5.4716-10.943 11.155-22.119 11.154-33.729-2.65e-4 -11.61-5.6828-22.778-11.154-33.721-5.4714-10.943-10.734-21.664-10.734-31.941 0-10.277 5.2628-20.99 10.734-31.934 5.4716-10.943 11.155-22.111 11.154-33.721-2.65e-4 -11.61-5.6828-22.785-11.154-33.729-5.4714-10.943-10.734-21.656-10.734-31.934 0-10.277 5.2628-20.99 10.734-31.934 5.4716-10.943 11.155-22.119 11.154-33.729-2.65e-4 -11.61-5.6828-22.778-11.154-33.721-5.4714-10.943-10.734-21.664-10.734-31.941 0-10.277 5.2628-20.99 10.734-31.934 5.4716-10.943 11.155-22.111 11.154-33.721-2.65e-4 -11.61-5.6828-22.785-11.154-33.729-5.4714-10.943-10.734-21.656-10.734-31.934 0-10.277 5.2628-20.99 10.734-31.934 5.4716-10.943 11.155-22.119 11.154-33.729-2.65e-4 -11.61-5.6828-22.778-11.154-33.721-5.4714-10.943-10.734-21.656-10.734-31.934z" color="#000000" color-rendering="auto" dominant-baseline="auto" fill="#99532b" image-rendering="auto" shape-rendering="auto" solid-color="#000000" style="font-feature-settings:normal;font-variant-alternates:normal;font-variant-caps:normal;font-variant-ligatures:normal;font-variant-numeric:normal;font-variant-position:normal;isolation:auto;mix-blend-mode:normal;shape-padding:0;text-decoration-color:#000000;text-decoration-line:none;text-decoration-style:solid;text-indent:0;text-orientation:mixed;text-transform:none;white-space:normal"/>
 </g>
</svg>
