<?xml version="1.0" encoding="UTF-8"?>
<!-- Created with Inkscape (http://www.inkscape.org/) -->
<svg width="46.772" height="262.64" version="1.1" viewBox="0 0 12.375 69.49" xmlns="http://www.w3.org/2000/svg" xmlns:cc="http://creativecommons.org/ns#" xmlns:dc="http://purl.org/dc/elements/1.1/" xmlns:rdf="http://www.w3.org/1999/02/22-rdf-syntax-ns#">
 <metadata>
  <rdf:RDF>
   <cc:Work rdf:about="">
    <dc:format>image/svg+xml</dc:format>
    <dc:type rdf:resource="http://purl.org/dc/dcmitype/StillImage"/>
    <dc:title/>
   </cc:Work>
  </rdf:RDF>
 </metadata>
 <g transform="translate(-150.92 -124.67)" fill="none" stroke="#442320" stroke-linejoin="round" stroke-width=".79375">
  <path d="m151.32 124.67c1e-5 5.7911 5.7906 11.582 5.7907 17.372 1.4e-4 5.7907-5.7907 11.582-5.7907 17.373 0 5.7911 5.7906 11.582 5.7907 17.372 1.4e-4 5.7907-5.7907 11.582-5.7907 17.373"/>
  <path d="m157.11 124.67c1e-5 5.7911 5.7906 11.582 5.7907 17.372 1.4e-4 5.7907-5.7907 11.582-5.7907 17.373 0 5.7911 5.7906 11.582 5.7907 17.372 1.4e-4 5.7907-5.7907 11.582-5.7907 17.373"/>
 </g>
</svg>
