<?xml version="1.0" encoding="UTF-8"?>
<!-- Created with Inkscape (http://www.inkscape.org/) -->
<svg width="92.478" height="93.978" version="1.1" viewBox="0 0 24.468 24.865" xmlns="http://www.w3.org/2000/svg" xmlns:cc="http://creativecommons.org/ns#" xmlns:dc="http://purl.org/dc/elements/1.1/" xmlns:rdf="http://www.w3.org/1999/02/22-rdf-syntax-ns#">
 <metadata>
  <rdf:RDF>
   <cc:Work rdf:about="">
    <dc:format>image/svg+xml</dc:format>
    <dc:type rdf:resource="http://purl.org/dc/dcmitype/StillImage"/>
    <dc:title/>
   </cc:Work>
  </rdf:RDF>
 </metadata>
 <g transform="translate(-148.03 -123.55)">
  <g transform="translate(69.375 54.216)" fill="none" stroke="#e4d77e" stroke-linecap="round" stroke-linejoin="round">
   <path transform="scale(.26458)" d="m310.74 266.1c3.5718 6.0708 5.8289 12.142 5.0954 18.212-1.309 10.833-12.142 21.666-14.175 32.945s4.7343 23 11.502 34.723h60.699" stroke-width="8"/>
   <path transform="scale(.26458)" d="m376.28 266.1c-3.5718 6.0708-5.8289 12.142-5.0954 18.212 1.309 10.833 12.142 21.666 14.175 32.945 2.033 11.279-4.7343 23-11.502 34.723" stroke-width="8"/>
   <g stroke-width="1.0583">
    <path d="m93.455 70.405h6.1033"/>
    <path d="m93.455 75.455h4.735"/>
    <path d="m93.455 88.078h8.5841"/>
    <path d="m93.455 77.979h5.703"/>
    <path d="m93.455 90.603h7.4955"/>
    <path d="m93.455 83.029h7.7623"/>
    <path d="m93.455 85.553h8.5057"/>
    <path d="m93.455 80.504h6.6986"/>
    <path d="m93.455 72.93h5.1333"/>
   </g>
  </g>
 </g>
</svg>
