<?xml version="1.0" encoding="UTF-8"?>
<!-- Created with Inkscape (http://www.inkscape.org/) -->
<svg width="92.478" height="93.978" version="1.1" viewBox="0 0 24.468 24.865" xmlns="http://www.w3.org/2000/svg" xmlns:cc="http://creativecommons.org/ns#" xmlns:dc="http://purl.org/dc/elements/1.1/" xmlns:rdf="http://www.w3.org/1999/02/22-rdf-syntax-ns#">
 <metadata>
  <rdf:RDF>
   <cc:Work rdf:about="">
    <dc:format>image/svg+xml</dc:format>
    <dc:type rdf:resource="http://purl.org/dc/dcmitype/StillImage"/>
    <dc:title/>
   </cc:Work>
  </rdf:RDF>
 </metadata>
 <g transform="translate(-148.03 -123.55)">
  <g transform="translate(69.375 54.216)" fill="none" stroke="#e4d77e" stroke-linecap="round" stroke-linejoin="round">
   <path transform="matrix(.26458 0 0 .26458 78.655 69.334)" d="m79.092-0.0019531a4.0004 4.0004 0 0 0-3.543 2.0215c-0.10244 0.17411-0.1941 0.35253-0.29492 0.52734h-19.316a1.5022 1.5022 0 1 0 0 3.0039h17.701c-1.0716 2.1335-2.0015 4.3106-2.6699 6.541h-15.031a1.5002 1.5002 0 1 0 0 2.9961h14.301c-0.4102 2.1421-0.57061 4.3248-0.4082 6.5488h-13.893a1.5002 1.5002 0 0 0-0.14844 0 1.5003 1.5003 0 0 0 0.14844 2.9961h14.303c0.44982 2.2681 1.1981 4.4378 2.1016 6.541h-16.404a1.5002 1.5002 0 1 0 0 2.9961h17.793c1.1042 2.1835 2.3266 4.3008 3.5137 6.3789 0.032804 0.057425 0.062948 0.11255 0.095703 0.16992h-21.402a1.5002 1.5002 0 1 0 0 2.9961h23.086c1.2447 2.2443 2.3976 4.4416 3.3047 6.5488h-26.391a1.5002 1.5002 0 0 0-0.14844 0 1.5003 1.5003 0 0 0 0.14844 2.9961h27.512c0.28755 0.901 0.53602 1.7903 0.69141 2.6523 0.22769 1.2632 0.29953 2.5633 0.26172 3.8887h-28.465a1.5002 1.5002 0 1 0 0 2.9961h28.195c-0.32943 2.1185-0.93649 4.307-1.7363 6.5488h-26.459a1.5002 1.5002 0 0 0-0.14844 0 1.5003 1.5003 0 0 0 0.14844 2.9961h25.293c-0.90245 2.1378-1.9712 4.3277-3.127 6.5488h-22.166a1.5002 1.5002 0 0 0-0.14844 0 1.5003 1.5003 0 0 0 0.14844 2.9961h20.578c-0.73208 1.3352-1.49 2.6816-2.2656 4.0391h-56.02c-6.264-10.964-11.492-21.273-9.916-30.014 0.83613-4.6388 3.7579-9.8724 6.8945-15.363 3.1367-5.4909 6.5214-11.247 7.3145-17.811 0.88885-7.3555-1.8298-14.278-5.6191-20.719a4.0004 4.0004 0 0 0-3.6641-2.0176 4.0004 4.0004 0 0 0-3.2305 6.0742c3.3542 5.7009 5.1504 10.919 4.5723 15.703-0.51589 4.2694-3.2031 9.3473-6.3184 14.801-3.1153 5.4535-6.6254 11.272-7.8223 17.912-2.3937 13.28 5.2051 25.711 11.973 37.434a4.0004 4.0004 0 0 0 3.4648 2h60.67a4.0006 4.0006 0 0 0 0.17188-0.005859 4.0004 4.0004 0 0 0 3.6445-2.5605c6.6829-11.558 14.004-23.799 11.648-36.867-1.1969-6.6401-4.707-12.459-7.8223-17.912-3.1153-5.4535-5.8025-10.531-6.3184-14.801-0.57814-4.7843 1.2181-10.002 4.5723-15.703a4.0004 4.0004 0 0 0-3.3535-6.0781z" color="#000000" color-rendering="auto" dominant-baseline="auto" fill="#fdd692" image-rendering="auto" shape-rendering="auto" solid-color="#000000" stroke="none" style="font-feature-settings:normal;font-variant-alternates:normal;font-variant-caps:normal;font-variant-ligatures:normal;font-variant-numeric:normal;font-variant-position:normal;isolation:auto;mix-blend-mode:normal;shape-padding:0;text-decoration-color:#000000;text-decoration-line:none;text-decoration-style:solid;text-indent:0;text-orientation:mixed;text-transform:none;white-space:normal"/>
  </g>
 </g>
</svg>
