<?xml version="1.0" encoding="UTF-8"?>
<!-- Created with Inkscape (http://www.inkscape.org/) -->
<svg width="201.97" height="80" version="1.1" viewBox="0 0 53.438 21.167" xmlns="http://www.w3.org/2000/svg" xmlns:cc="http://creativecommons.org/ns#" xmlns:dc="http://purl.org/dc/elements/1.1/" xmlns:rdf="http://www.w3.org/1999/02/22-rdf-syntax-ns#">
 <metadata>
  <rdf:RDF>
   <cc:Work rdf:about="">
    <dc:format>image/svg+xml</dc:format>
    <dc:type rdf:resource="http://purl.org/dc/dcmitype/StillImage"/>
    <dc:title/>
   </cc:Work>
  </rdf:RDF>
 </metadata>
 <g transform="translate(-48.876 -77.774)">
  <g transform="matrix(1.1495 0 0 1.1495 -106.53 7.914)" stroke-width=".86992">
   <path transform="scale(.26458)" d="m549.31 229.69-38.355 11.35 2.2695 7.6719 56.361 20.58v-2e-3l4.9434-1.4629 10.324 10.861 56.355 20.596 6e-3 -0.0176 38.354-11.35 5.8574-1.7344 1.2266-3.3574-63.199-23.096-6e-3 0.0156-3.2168 0.95118-3.625 1.0723-10.934-11.5zm-0.26367 8.4219 43.74 15.969-22.939 6.7891-43.74-15.971zm54.199 21.217 25.586 26.914-39.473-14.426-5.9902-6.3008-0.22656-0.23828zm19.965 8.8301 42.475 15.523-22.047 6.5254-20.842-21.926z" fill="#e4d77e"/>
   <g fill="#e4d77e" stroke-width=".86992">
    <ellipse cx="144.95" cy="65.019" rx=".65295" ry=".25968"/>
    <path transform="scale(.26458)" d="m547.82 242.97a6.9564 2.7665 0 0 0-6.9551 2.7676 6.9564 2.7665 0 0 0 6.9551 2.7656 6.9564 2.7665 0 0 0 6.957-2.7656 6.9564 2.7665 0 0 0-6.957-2.7676zm0 1.2051a3.9256 1.5612 0 0 1 3.9258 1.5625 3.9256 1.5612 0 0 1-3.9258 1.5605 3.9256 1.5612 0 0 1-3.9238-1.5605 3.9256 1.5612 0 0 1 3.9238-1.5625z"/>
   </g>
   <g transform="translate(25.735 9.7057)" fill="#e4d77e" stroke-width=".86992">
    <ellipse cx="144.95" cy="65.019" rx=".65295" ry=".25968"/>
    <path transform="scale(.26458)" d="m547.82 242.97a6.9564 2.7665 0 0 0-6.9551 2.7676 6.9564 2.7665 0 0 0 6.9551 2.7656 6.9564 2.7665 0 0 0 6.957-2.7656 6.9564 2.7665 0 0 0-6.957-2.7676zm0 1.2051a3.9256 1.5612 0 0 1 3.9258 1.5625 3.9256 1.5612 0 0 1-3.9258 1.5605 3.9256 1.5612 0 0 1-3.9238-1.5605 3.9256 1.5612 0 0 1 3.9238-1.5625z"/>
   </g>
   <path d="m146.05 65.395 3.8838 0.76005 2.7999-0.69471" fill="none" stroke="#e4d77e" stroke-width=".34525"/>
   <path d="m167.48 74.283 1.8754 0.28087" fill="none" stroke="#e4d77e" stroke-width=".34525"/>
  </g>
 </g>
</svg>
