<?xml version="1.0" encoding="UTF-8"?>
<!-- Created with Inkscape (http://www.inkscape.org/) -->
<svg width="102.5" height="96.43" version="1.1" viewBox="0 0 27.12 25.514" xmlns="http://www.w3.org/2000/svg" xmlns:cc="http://creativecommons.org/ns#" xmlns:dc="http://purl.org/dc/elements/1.1/" xmlns:rdf="http://www.w3.org/1999/02/22-rdf-syntax-ns#">
 <metadata>
  <rdf:RDF>
   <cc:Work rdf:about="">
    <dc:format>image/svg+xml</dc:format>
    <dc:type rdf:resource="http://purl.org/dc/dcmitype/StillImage"/>
    <dc:title/>
   </cc:Work>
  </rdf:RDF>
 </metadata>
 <g transform="translate(-140.65 -133.05)">
  <g transform="translate(30.474 73.42)">
   <g transform="matrix(.61447 0 0 .61447 42.072 16.313)" fill="#e4d77e">
    <path transform="scale(.26458)" d="m448.57 266.45a29.643 29.643 0 0 0-29.645 29.645 29.643 29.643 0 0 0 29.645 29.643 29.643 29.643 0 0 0 29.643-29.643 29.643 29.643 0 0 0-29.643-29.645zm0 12.17a17.475 17.475 0 0 1 17.475 17.475 17.475 17.475 0 0 1-17.475 17.475 17.475 17.475 0 0 1-17.475-17.475 17.475 17.475 0 0 1 17.475-17.475z"/>
    <circle cx="118.68" cy="78.342" r="2.619"/>
   </g>
   <g transform="matrix(.61447 0 0 .61447 59.553 23.494)" fill="#e4d77e">
    <path transform="scale(.26458)" d="m448.57 266.45a29.643 29.643 0 0 0-29.645 29.645 29.643 29.643 0 0 0 29.645 29.643 29.643 29.643 0 0 0 29.643-29.643 29.643 29.643 0 0 0-29.643-29.645zm0 12.17a17.475 17.475 0 0 1 17.475 17.475 17.475 17.475 0 0 1-17.475 17.475 17.475 17.475 0 0 1-17.475-17.475 17.475 17.475 0 0 1 17.475-17.475z"/>
    <circle cx="118.68" cy="78.342" r="2.619"/>
   </g>
   <path d="m119.46 66.283 8.5656 3.5188" fill="none" stroke="#e4d77e" stroke-linecap="round" stroke-width="2.1167"/>
   <g transform="matrix(.61447 0 0 .61447 46.935 32.188)" fill="#e4d77e">
    <path transform="scale(.26458)" d="m448.57 266.45a29.643 29.643 0 0 0-29.645 29.645 29.643 29.643 0 0 0 29.645 29.643 29.643 29.643 0 0 0 29.643-29.643 29.643 29.643 0 0 0-29.643-29.645zm0 12.17a17.475 17.475 0 0 1 17.475 17.475 17.475 17.475 0 0 1-17.475 17.475 17.475 17.475 0 0 1-17.475-17.475 17.475 17.475 0 0 1 17.475-17.475z"/>
    <circle cx="118.68" cy="78.342" r="2.619"/>
   </g>
   <path d="m128.51 74.367-4.6809 3.2249" fill="none" stroke="#e4d77e" stroke-linecap="round" stroke-width="2.1167"/>
  </g>
 </g>
</svg>
