<?xml version="1.0" encoding="UTF-8"?>
<!-- Created with Inkscape (http://www.inkscape.org/) -->
<svg width="258.61" height="128.81" version="1.1" viewBox="0 0 68.424 34.079" xmlns="http://www.w3.org/2000/svg" xmlns:cc="http://creativecommons.org/ns#" xmlns:dc="http://purl.org/dc/elements/1.1/" xmlns:rdf="http://www.w3.org/1999/02/22-rdf-syntax-ns#">
 <metadata>
  <rdf:RDF>
   <cc:Work rdf:about="">
    <dc:format>image/svg+xml</dc:format>
    <dc:type rdf:resource="http://purl.org/dc/dcmitype/StillImage"/>
    <dc:title/>
   </cc:Work>
  </rdf:RDF>
 </metadata>
 <g transform="matrix(.99999 0 0 .99999 -140.89 -278.03)">
  <path d="m141.69 280.27v28.838s0 2.2153 22.784 2.2153 22.784-2.2153 22.784-2.2153v-28.838s0-1.439-22.784-1.439c-22.784 0-22.784 1.439-22.784 1.439z" fill="none" stroke="#683431" stroke-linejoin="round" stroke-width="1.5875"/>
  <path d="m141.69 280.27s-1.8e-4 1.5056 22.784 1.5056c22.784 0 22.784-1.5056 22.784-1.5056" fill="none" stroke="#683431" stroke-linejoin="round" stroke-width="1.5875"/>
  <path d="m186.79 282.29c0.0124-0.0169-0.0187 0.0295-0.15245 0.1075-0.26758 0.1561-0.93438 0.42857-2.326 0.69916-2.1889 0.42569-6.1816 0.85942-13.314 1.0258v1.0598c7.1793-0.16537 11.224-0.60045 13.518-1.0464 1.4565-0.28324 2.2118-0.56499 2.6562-0.82426 0.22221-0.12962 0.3714-0.25672 0.47284-0.39481 0.0507-0.0691 0.0889-0.14205 0.11317-0.21288 0.0243-0.0708 0.0331-0.19534 0.0331-0.19534h-1.0583s0.0102-0.10787 0.0233-0.14626c0.0132-0.0384 0.0288-0.0639 0.0351-0.0723zm0 2.9549c0.0124-0.0169-0.0187 0.0294-0.15245 0.10747-0.26758 0.1561-0.93438 0.4286-2.326 0.69919-2.1889 0.42566-6.1816 0.85939-13.314 1.0258v1.0599c7.1793-0.16536 11.224-0.60041 13.518-1.0464 1.4565-0.28321 2.2118-0.56496 2.6562-0.82423 0.22221-0.12962 0.3714-0.2562 0.47284-0.39428 0.0507-0.069 0.0889-0.14208 0.11317-0.21291 0.0243-0.0708 0.0331-0.19534 0.0331-0.19534h-1.0583s0.0102-0.1084 0.0233-0.14677c0.0132-0.0384 0.0288-0.0638 0.0351-0.0723zm0 2.9554c0.0124-0.0169-0.0187 0.0295-0.15245 0.10748-0.26758 0.1561-0.93438 0.42857-2.326 0.69919-2.1889 0.42566-6.1816 0.85939-13.314 1.0258v1.0599c7.1793-0.16523 11.224-0.60044 13.518-1.0464 1.4565-0.28324 2.2118-0.56499 2.6562-0.82426 0.22221-0.12962 0.3714-0.2567 0.47284-0.39481 0.0507-0.069 0.0889-0.14214 0.11317-0.21288 0.0243-0.0708 0.0331-0.19741 0.0331-0.19741h-1.0583s0.0102-0.1079 0.0233-0.14626c0.0132-0.0384 0.0288-0.0618 0.0351-0.0703zm0 2.9549c0.0124-0.0169-0.0187 0.0294-0.15245 0.10747-0.26758 0.15611-0.93438 0.42858-2.326 0.69919-2.1889 0.42564-6.1816 0.8594-13.314 1.0258v1.0599c7.1793-0.16592 11.224-0.60251 13.518-1.0485 1.4565-0.28323 2.2118-0.5629 2.6562-0.82216 0.22221-0.12962 0.3714-0.25826 0.47284-0.39638 0.0507-0.0691 0.0889-0.14001 0.11317-0.21082 0.0243-0.0708 0.0331-0.1974 0.0331-0.1974h-1.0583s0.0102-0.1084 0.0233-0.14677c0.0132-0.0384 0.0288-0.0618 0.0351-0.0703zm0 2.9554c0.0124-0.0169-0.0187 0.0274-0.15245 0.10541-0.26758 0.1561-0.93438 0.4286-2.326 0.69919-2.1889 0.42566-6.1816 0.86093-13.314 1.0278v1.0573c7.1793-0.16526 11.224-0.59991 13.518-1.046 1.4565-0.28321 2.2118-0.56496 2.6562-0.82423 0.22221-0.12964 0.3714-0.25672 0.47284-0.39481 0.0507-0.069 0.0889-0.14002 0.11317-0.21085 0.0243-0.0708 0.0331-0.1974 0.0331-0.1974h-1.0583s0.0102-0.10787 0.0233-0.14624c0.0132-0.0384 0.0288-0.0618 0.0351-0.0703zm0 2.9528c0.0124-0.0169-0.0187 0.0295-0.15245 0.1075-0.26758 0.1561-0.93438 0.42857-2.326 0.69918-2.1889 0.42564-6.1816 0.8594-13.314 1.0258v1.0599c7.1793-0.16539 11.224-0.60044 13.518-1.0464 1.4565-0.28321 2.2118-0.56497 2.6562-0.82423 0.22221-0.12965 0.3714-0.2562 0.47284-0.39431 0.0507-0.069 0.0889-0.14052 0.11317-0.21135 0.0243-0.0708 0.0331-0.19688 0.0331-0.19688h-1.0583s0.0102-0.10839 0.0233-0.14676c0.0132-0.0384 0.0288-0.0638 0.0351-0.0724zm0 2.9554c0.0124-0.0169-0.0187 0.0294-0.15245 0.10748-0.26758 0.1561-0.93438 0.42857-2.326 0.69918-2.1889 0.42564-6.1816 0.8594-13.314 1.0258v1.0594c7.1793-0.16539 11.224-0.60047 13.518-1.0464 1.4565-0.28324 2.2118-0.56497 2.6562-0.82426 0.22221-0.12962 0.3714-0.2562 0.47284-0.39428 0.0507-0.069 0.0889-0.14002 0.11317-0.21085 0.0243-0.0708 0.0331-0.19741 0.0331-0.19741h-1.0583s0.0102-0.10784 0.0233-0.14623c0.0132-0.0384 0.0288-0.0638 0.0351-0.0723zm0 2.9548c0.0124-0.0169-0.0187 0.0295-0.15245 0.1075-0.26758 0.15611-0.93438 0.42858-2.326 0.69919-2.1889 0.42564-6.1816 0.85939-13.314 1.0258v1.0599c7.1793-0.16539 11.224-0.60047 13.518-1.0465 1.4565-0.28321 2.2118-0.56496 2.6562-0.82423 0.22221-0.12964 0.3714-0.25672 0.47284-0.39481 0.0507-0.0691 0.0889-0.14208 0.11317-0.21291 0.0243-0.0708 0.0331-0.19481 0.0331-0.19481h-1.0583s0.0102-0.1084 0.0233-0.14676c0.0132-0.0384 0.0288-0.0639 0.0351-0.0724zm0 2.9554c0.0124-0.0169-0.0187 0.0294-0.15245 0.10747-0.26758 0.15611-0.93438 0.42857-2.326 0.69919-2.1889 0.42564-6.1816 0.85939-13.314 1.0258v1.0594c7.1793-0.16537 11.224-0.60047 13.518-1.0464 1.4565-0.28323 2.2118-0.56499 2.6562-0.82425 0.22221-0.12962 0.3714-0.2562 0.47284-0.39429 0.0507-0.0691 0.0889-0.14208 0.11317-0.21291 0.0243-0.0708 0.0331-0.19534 0.0331-0.19534h-1.0583s0.0102-0.10837 0.0233-0.14676c0.0132-0.0384 0.0288-0.0633 0.0351-0.0718z" color="#000000" color-rendering="auto" dominant-baseline="auto" fill="#683431" image-rendering="auto" shape-rendering="auto" solid-color="#000000" style="font-feature-settings:normal;font-variant-alternates:normal;font-variant-caps:normal;font-variant-ligatures:normal;font-variant-numeric:normal;font-variant-position:normal;isolation:auto;mix-blend-mode:normal;shape-padding:0;text-decoration-color:#000000;text-decoration-line:none;text-decoration-style:solid;text-indent:0;text-orientation:mixed;text-transform:none;white-space:normal"/>
  <g fill="none" stroke="#683431" stroke-linejoin="round">
   <path d="m164.47 281.77c22.784 0 22.784-2.2153 22.784-2.2153" stroke-width="1.0583"/>
   <path d="m164.47 311.32c22.784 0 22.784-2.2153 22.784-2.2153" stroke-width="1.0583"/>
   <path d="m187.26 280.27 21.268 3e-5v6.6925s-3.1404-2.8326-10.634-2.8326-10.634 2.8326-10.634 2.8326z" stroke-linecap="round" stroke-width="1.5875"/>
  </g>
 </g>
</svg>
