<?xml version="1.0" encoding="UTF-8" standalone="no"?>
<!-- Created with Inkscape (http://www.inkscape.org/) -->

<svg
   xmlns:dc="http://purl.org/dc/elements/1.1/"
   xmlns:cc="http://creativecommons.org/ns#"
   xmlns:rdf="http://www.w3.org/1999/02/22-rdf-syntax-ns#"
   xmlns:svg="http://www.w3.org/2000/svg"
   xmlns="http://www.w3.org/2000/svg"
   xmlns:sodipodi="http://sodipodi.sourceforge.net/DTD/sodipodi-0.dtd"
   xmlns:inkscape="http://www.inkscape.org/namespaces/inkscape"
   width="140.01"
   height="140"
   version="1.1"
   viewBox="0 0 37.046 37.042"
   id="svg20"
   sodipodi:docname="section_decoration.svg"
   inkscape:version="0.92.3 (2405546, 2018-03-11)">
  <defs
     id="defs24" />
  <sodipodi:namedview
     pagecolor="#ffffff"
     bordercolor="#666666"
     borderopacity="1"
     objecttolerance="10"
     gridtolerance="10"
     guidetolerance="10"
     inkscape:pageopacity="0"
     inkscape:pageshadow="2"
     inkscape:window-width="1600"
     inkscape:window-height="847"
     id="namedview22"
     showgrid="false"
     inkscape:zoom="3.3714286"
     inkscape:cx="74.149669"
     inkscape:cy="73.417244"
     inkscape:window-x="1358"
     inkscape:window-y="-8"
     inkscape:window-maximized="1"
     inkscape:current-layer="svg20" />
  <metadata
     id="metadata2">
    <rdf:RDF>
      <cc:Work
         rdf:about="">
        <dc:format>image/svg+xml</dc:format>
        <dc:type
           rdf:resource="http://purl.org/dc/dcmitype/StillImage" />
        <dc:title />
      </cc:Work>
    </rdf:RDF>
  </metadata>
  <g
     transform="matrix(1.0074 0 0 1.0074 89.481 19.235)"
     stroke-width=".99268"
     id="g18">
    <g
       transform="translate(-320.75,-294.65)"
       fill="none"
       stroke="#603a3a"
       stroke-linecap="round"
       stroke-linejoin="round"
       id="g16">
      <g
         stroke-width="1.3132"
         id="g14">
        <path
           d="m261.05 288.06c-1.8475 8e-3 -3.8801 0.26603-5.7019 0.85422-0.55656 1.7239-1.4084 3.2592-2.6296 4.2672-0.0334 0.0275-0.0679 0.054-0.10281 0.08a2.4016 2.3895 0 0 1 0.10281 0.68455 2.4016 2.3895 0 0 1-0.10193 0.68457c0.0348 0.0259 0.069 0.0523 0.10223 0.0797 1.2211 1.0079 2.073 2.5432 2.6296 4.2671 3.679 1.1878 8.2202 1.0243 10.35 0.19363 3.1283-1.22 3.1283-9.2304 0-10.451-1.0753-0.41935-2.7654-0.66897-4.6488-0.6606z"
           id="path4"
           style="fill:#fdd692;fill-opacity:1" />
        <path
           d="m248.02 294.63c-0.0348 0.026-0.0692 0.0522-0.10251 0.0797-3.8273 3.1588-4.0434 11.489-2.8235 14.618 1.22 3.1283 9.2301 3.1283 10.451 0 1.22-3.1284 1.0042-11.458-2.8232-14.618-0.0332-0.0273-0.0676-0.0536-0.10222-0.0794a2.4016 2.3895 0 0 1-2.2998 1.7044 2.4016 2.3895 0 0 1-2.2987-1.7047z"
           id="path6"
           style="fill:#fdd692;fill-opacity:1" />
        <path
           d="m239.58 288.06c-1.8833-8e-3 -3.5731 0.24125-4.6485 0.6606-3.1283 1.22-3.1283 9.2304 0 10.451 2.1302 0.83069 6.6711 0.99413 10.35-0.19363 0.55656-1.7239 1.4087-3.2592 2.6299-4.2671 0.0333-0.0275 0.0677-0.0537 0.10251-0.0797a2.4016 2.3895 0 0 1-0.1028-0.68457 2.4016 2.3895 0 0 1 0.10192-0.68513c-0.0346-0.0258-0.0689-0.0521-0.10192-0.0794-1.2214-1.0081-2.0736-2.5437-2.6302-4.268-1.8215-0.58794-3.8539-0.84514-5.701-0.85335z"
           id="path8"
           style="fill:#fdd692;fill-opacity:1" />
        <path
           d="m250.31 276.21c-2.3075 0-4.615 0.78214-5.225 2.3463-1.22 3.1283-1.0039 11.458 2.8235 14.618 0.0332 0.0273 0.0673 0.0536 0.10193 0.0794a2.4016 2.3895 0 0 1 2.2996-1.7044 2.4016 2.3895 0 0 1 2.299 1.7047c0.0348-0.026 0.0696-0.0522 0.10281-0.0797 3.8273-3.1588 4.0434-11.489 2.8235-14.618-0.60998-1.5642-2.9178-2.3463-5.2253-2.3463z"
           id="path10"
           style="fill:#fdd692;fill-opacity:1" />
        <ellipse
           cx="250.31"
           cy="293.94"
           rx="2.4016"
           ry="2.3895"
           id="ellipse12"
           style="fill:#cc7847;fill-opacity:1" />
      </g>
    </g>
  </g>
</svg>
