<?xml version="1.0" encoding="UTF-8"?>
<!-- Created with Inkscape (http://www.inkscape.org/) -->
<svg width="222.71" height="140.01" version="1.1" viewBox="0 0 58.925 37.043" xmlns="http://www.w3.org/2000/svg" xmlns:cc="http://creativecommons.org/ns#" xmlns:dc="http://purl.org/dc/elements/1.1/" xmlns:rdf="http://www.w3.org/1999/02/22-rdf-syntax-ns#">
 <metadata>
  <rdf:RDF>
   <cc:Work rdf:about="">
    <dc:format>image/svg+xml</dc:format>
    <dc:type rdf:resource="http://purl.org/dc/dcmitype/StillImage"/>
    <dc:title/>
   </cc:Work>
  </rdf:RDF>
 </metadata>
 <path d="m7.9376 0.66256c0.88868 0 1.777 0 1.3327 5.7469-0.44432 5.7469-2.2209 17.241 0.9225 23.297 3.1434 6.0564 11.207 6.674 19.27 6.674 8.0632-1.4e-5 16.127-0.61764 19.27-6.6734 3.1432-6.0558 1.3664-17.551 0.92243-23.298-0.44398-5.747 0.44437-5.747 1.3324-5.747" fill="#fdd692" stroke="#603a3a" stroke-linejoin="round" stroke-width="1.3229"/>
 <g fill="none" stroke-linejoin="round">
  <path d="m2.6842 0.66265c-1.1215 0-2.0242 0.90647-2.0242 2.0327 0 1.1262 0.90265 2.0334 2.0242 2.0334h6.6833c5.529e-4 -0.014607 0.00152-0.030914 0.00204-0.045413v-1.6674c-0.11473-2.3479-0.77282-2.3533-1.4322-2.3533h-3.6386z" stroke="#603a3a" stroke-width="1.3229"/>
  <path d="m50.988 4.7284-1.4318-1.3e-6" stroke="#000" stroke-width=".26458"/>
  <g stroke="#603a3a">
   <path d="m56.241 0.66265c1.1215 0 2.0242 0.90647 2.0242 2.0327 0 1.1262-0.90265 2.0334-2.0242 2.0334h-6.6833c-5.38e-4 -0.014598-0.0016-0.030915-0.0021-0.045409v-1.6674c0.11479-2.3479 0.77288-2.3533 1.4323-2.3533h3.6386z" stroke-width="1.3229"/>
   <path d="m7.9376 0.66265h43.05" stroke-width="1.3229"/>
   <g stroke-linecap="round">
    <g stroke-width=".52916">
     <path d="m50.472 21.224c-2.734 3.3093-12.723 3.3093-14.142 3.3093"/>
     <path d="m50.472 17.797c-2.734 3.3093-12.723 3.3093-14.142 3.3093"/>
     <path d="m50.472 14.37c-2.734 3.3093-12.723 3.3093-14.142 3.3093"/>
     <path d="m50.472 10.943c-2.734 3.3093-12.723 3.3093-14.142 3.3093"/>
    </g>
    <path transform="matrix(.26458 0 0 .26458 0 -.0007532)" d="m188.3 30.783c-12.839 10.136-45.992 10.136-50.992 10.136" stroke-width="2"/>
    <path transform="matrix(.26458 0 0 .26458 0 -.0007532)" d="m187.55 18.397c-13.335 9.5696-45.335 9.5696-50.239 9.5696" stroke-width="2"/>
    <g stroke-width=".52916">
     <path d="m50.472 0.66265c-2.734 3.3093-12.723 3.3093-14.142 3.3093"/>
     <path d="m50.472 24.651c-2.734 3.3093-12.723 3.3093-14.142 3.3093"/>
     <path d="m48.922 29.292c-3.8371 2.0949-11.374 2.0949-12.592 2.0949"/>
     <path d="m43.82 34.262c-3.3337 0.55128-6.709 0.55128-7.4897 0.55128"/>
    </g>
   </g>
  </g>
 </g>
</svg>
