<?xml version="1.0" encoding="UTF-8"?>
<!-- Created with Inkscape (http://www.inkscape.org/) -->
<svg width="139" height="139" version="1.1" viewBox="0 0 36.777 36.777" xmlns="http://www.w3.org/2000/svg" xmlns:cc="http://creativecommons.org/ns#" xmlns:dc="http://purl.org/dc/elements/1.1/" xmlns:rdf="http://www.w3.org/1999/02/22-rdf-syntax-ns#">
 <metadata>
  <rdf:RDF>
   <cc:Work rdf:about="">
    <dc:format>image/svg+xml</dc:format>
    <dc:type rdf:resource="http://purl.org/dc/dcmitype/StillImage"/>
    <dc:title/>
   </cc:Work>
  </rdf:RDF>
 </metadata>
 <g transform="translate(88.692 19.234)">
  <g transform="translate(-320.75 -294.65)" fill="none" stroke="#683431" stroke-linecap="round" stroke-linejoin="round">
   <g stroke-width="1.0583">
    <path d="m261.26 287.88c-1.8612 8e-3 -3.9089 0.268-5.7442 0.86056-0.56069 1.7367-1.4188 3.2834-2.6491 4.2988-0.0336 0.0277-0.0684 0.0544-0.10357 0.0806a2.4194 2.4072 0 0 1 0.10357 0.68962 2.4194 2.4072 0 0 1-0.10268 0.68965c0.035 0.0261 0.0695 0.0527 0.10298 0.0803 1.2302 1.0154 2.0884 2.562 2.6491 4.2987 3.7063 1.1966 8.2812 1.0319 10.427 0.19506 3.1515-1.229 3.1515-9.2988 0-10.528-1.0833-0.42246-2.7859-0.67393-4.6833-0.6655z"/>
    <path d="m248.13 294.5c-0.0351 0.0262-0.0697 0.0526-0.10327 0.0803-3.8557 3.1822-4.0734 11.574-2.8444 14.726 1.229 3.1515 9.2985 3.1515 10.528 0 1.229-3.1516 1.0116-11.543-2.8441-14.726-0.0334-0.0275-0.0681-0.054-0.10298-0.08a2.4194 2.4072 0 0 1-2.3169 1.717 2.4194 2.4072 0 0 1-2.3157-1.7173z"/>
    <path d="m239.63 287.88c-1.8973-8e-3 -3.5996 0.24304-4.683 0.6655-3.1515 1.229-3.1515 9.2988 0 10.528 2.146 0.83685 6.7206 1.0015 10.427-0.19506 0.56068-1.7367 1.4191-3.2834 2.6494-4.2987 0.0335-0.0277 0.0682-0.0541 0.10327-0.0803a2.4194 2.4072 0 0 1-0.10357-0.68965 2.4194 2.4072 0 0 1 0.10268-0.69021c-0.0349-0.026-0.0694-0.0525-0.10268-0.08-1.2305-1.0156-2.089-2.5626-2.6497-4.2996-1.835-0.5923-3.8825-0.85141-5.7433-0.85968z"/>
    <path d="m250.44 275.95c-2.3246 0-4.6492 0.78794-5.2637 2.3637-1.229 3.1515-1.0113 11.543 2.8444 14.726 0.0334 0.0275 0.0678 0.054 0.10268 0.08a2.4194 2.4072 0 0 1 2.3166-1.717 2.4194 2.4072 0 0 1 2.316 1.7173c0.0351-0.0262 0.0701-0.0526 0.10357-0.0803 3.8557-3.1822 4.0734-11.574 2.8444-14.726-0.6145-1.5758-2.9394-2.3637-5.264-2.3637z"/>
   </g>
   <ellipse cx="250.44" cy="293.81" rx="2.4194" ry="2.4072" stroke-width="1.5875"/>
  </g>
 </g>
</svg>
