<?xml version="1.0" encoding="UTF-8"?>
<!-- Created with Inkscape (http://www.inkscape.org/) -->
<svg width="192.4" height="120.01" version="1.1" viewBox="0 0 50.907 31.752" xmlns="http://www.w3.org/2000/svg" xmlns:cc="http://creativecommons.org/ns#" xmlns:dc="http://purl.org/dc/elements/1.1/" xmlns:rdf="http://www.w3.org/1999/02/22-rdf-syntax-ns#">
 <metadata>
  <rdf:RDF>
   <cc:Work rdf:about="">
    <dc:format>image/svg+xml</dc:format>
    <dc:type rdf:resource="http://purl.org/dc/dcmitype/StillImage"/>
    <dc:title/>
   </cc:Work>
  </rdf:RDF>
 </metadata>
 <g transform="translate(-98.877 -115.74)">
  <g transform="matrix(1.614 0 0 1.6298 -61.137 -92.466)">
   <g transform="matrix(.35278 0 0 -.35278 128.67 132.98)" fill="#fdd692" stroke="#fff2db" stroke-width="2.3122">
    <path d="m0 0c16.113 5.266-14.418-29.411-33.701-36.592-11.9-4.431-48.795-1.999-48.795-1.999s2.352 41.211 27.263 50.794c18.914 7.276 44.929-15.571 55.233-12.203z" fill="#fdd692" stroke="#603a3a" stroke-width="2.3122"/>
   </g>
   <g fill="#603a3a" stroke-width=".61658">
    <g transform="matrix(.35278 0 0 -.35278 112.68 133.94)">
     <path d="m0 0c0-1.991-1.614-3.606-3.606-3.606-1.991 0-3.605 1.615-3.605 3.606s1.614 3.606 3.605 3.606c1.992 0 3.606-1.615 3.606-3.606" fill="#603a3a"/>
    </g>
    <g transform="matrix(.35278 0 0 -.35278 109.19 135.48)">
     <path d="m0 0c0-1.991-1.614-3.606-3.606-3.606-1.991 0-3.605 1.615-3.605 3.606s1.614 3.606 3.605 3.606c1.992 0 3.606-1.615 3.606-3.606" fill="#603a3a"/>
    </g>
    <g transform="matrix(.35278 0 0 -.35278 105.5 142.08)">
     <path d="m0 0c0-1.991-1.614-3.606-3.606-3.606-1.991 0-3.605 1.615-3.605 3.606s1.614 3.606 3.605 3.606c1.992 0 3.606-1.615 3.606-3.606" fill="#603a3a"/>
    </g>
    <g transform="matrix(.35278 0 0 -.35278 106.08 137.68)">
     <path d="m0 0c0-1.991-1.614-3.606-3.606-3.606-1.991 0-3.605 1.615-3.605 3.606s1.614 3.606 3.605 3.606c1.992 0 3.606-1.615 3.606-3.606" fill="#603a3a"/>
    </g>
    <g transform="matrix(.35278 0 0 -.35278 116.21 133.33)">
     <path d="m0 0c0-1.991-1.614-3.606-3.606-3.606-1.991 0-3.605 1.615-3.605 3.606s1.614 3.606 3.605 3.606c1.992 0 3.606-1.615 3.606-3.606" fill="#603a3a"/>
    </g>
    <g transform="matrix(.35278 0 0 -.35278 120.62 134.95)">
     <path d="m0 0c0-1.991-1.614-3.606-3.606-3.606-1.991 0-3.605 1.615-3.605 3.606s1.614 3.606 3.605 3.606c1.992 0 3.606-1.615 3.606-3.606" fill="#603a3a"/>
    </g>
    <g transform="matrix(.35278 0 0 -.35278 124.34 137.14)">
     <path d="m0 0c0-1.991-1.614-3.606-3.606-3.606-1.991 0-3.605 1.615-3.605 3.606s1.614 3.606 3.605 3.606c1.992 0 3.606-1.615 3.606-3.606" fill="#603a3a"/>
    </g>
    <g transform="matrix(.35278 0 0 -.35278 121.01 139.36)">
     <path d="m0 0c0-1.991-1.614-3.606-3.606-3.606-1.991 0-3.605 1.615-3.605 3.606s1.614 3.606 3.605 3.606c1.992 0 3.606-1.615 3.606-3.606" fill="#603a3a"/>
    </g>
    <g transform="matrix(.35278 0 0 -.35278 117.46 140.19)">
     <path d="m0 0c0-1.991-1.614-3.606-3.606-3.606-1.991 0-3.605 1.615-3.605 3.606s1.614 3.606 3.605 3.606c1.992 0 3.606-1.615 3.606-3.606" fill="#603a3a"/>
    </g>
    <g transform="matrix(.35278 0 0 -.35278 113.27 141.46)">
     <path d="m0 0c0-1.991-1.614-3.606-3.606-3.606-1.991 0-3.605 1.615-3.605 3.606s1.614 3.606 3.605 3.606c1.992 0 3.606-1.615 3.606-3.606" fill="#603a3a"/>
    </g>
    <g transform="matrix(.35278 0 0 -.35278 109.53 141.46)">
     <path d="m0 0c0-1.991-1.614-3.606-3.606-3.606-1.991 0-3.605 1.615-3.605 3.606s1.614 3.606 3.605 3.606c1.992 0 3.606-1.615 3.606-3.606" fill="#603a3a"/>
    </g>
   </g>
  </g>
 </g>
</svg>
