<?xml version="1.0" encoding="UTF-8"?>
<!-- Created with Inkscape (http://www.inkscape.org/) -->
<svg width="140.55" height="139.49" version="1.1" viewBox="0 0 37.187 36.905" xmlns="http://www.w3.org/2000/svg" xmlns:cc="http://creativecommons.org/ns#" xmlns:dc="http://purl.org/dc/elements/1.1/" xmlns:rdf="http://www.w3.org/1999/02/22-rdf-syntax-ns#">
 <metadata>
  <rdf:RDF>
   <cc:Work rdf:about="">
    <dc:format>image/svg+xml</dc:format>
    <dc:type rdf:resource="http://purl.org/dc/dcmitype/StillImage"/>
    <dc:title/>
   </cc:Work>
  </rdf:RDF>
 </metadata>
 <g transform="matrix(1.1604 0 0 .85831 -68.895 -215)" stroke-width="1.002">
  <g transform="translate(-25.895 -15.903)" fill="none" stroke="#683431" stroke-linejoin="round">
   <path d="m86.061 270.64s6.8317 8.4303 11.225 3.6081c8.3216-9.1332 19.23-6.8154 19.23-6.8154l-13.484 41.16h-8.5526z" stroke-width="1.5907"/>
   <path transform="scale(.26458)" d="m349.17 1041.1-11.847 36.164zm8.7179 0.9576-16.919 51.646zm11.374-7.1444-24.645 75.231zm12.557-10.758-33.556 102.43zm11.151-6.4696-41.059 125.34zm10.363-4.0607-50.046 152.76zm9.8268-2.4224-50.839 155.18zm9.1551-0.3779-50.961 155.56zm9.0332 0-50.963 155.56zm9.0312 0-50.961 155.56z" stroke-width="2.004"/>
  </g>
 </g>
</svg>
