<?xml version="1.0" encoding="UTF-8"?>
<!-- Created with Inkscape (http://www.inkscape.org/) -->
<svg width="127.93" height="140" version="1.1" viewBox="0 0 33.848 37.04" xmlns="http://www.w3.org/2000/svg" xmlns:cc="http://creativecommons.org/ns#" xmlns:dc="http://purl.org/dc/elements/1.1/" xmlns:rdf="http://www.w3.org/1999/02/22-rdf-syntax-ns#">
 <metadata>
  <rdf:RDF>
   <cc:Work rdf:about="">
    <dc:format>image/svg+xml</dc:format>
    <dc:type rdf:resource="http://purl.org/dc/dcmitype/StillImage"/>
    <dc:title/>
   </cc:Work>
  </rdf:RDF>
 </metadata>
 <path d="m33.08-4.9709e-4a0.74743 0.74743 0 0 0-0.18509 0.028609l-26.947 7.7748a0.74743 0.74743 0 0 0-0.54066 0.71933v23.555a3.4518 2.7216 0 0 0-1.956-0.47936 3.4518 2.7216 0 0 0-3.4518 2.7214 3.4518 2.7216 0 0 0 3.4518 2.7214 3.4518 2.7216 0 0 0 3.4518-2.7214v-19.582l7.8957-2.2777-0.41455-1.4369-7.4811 2.1586v-4.0982l25.451-7.3421v22.564a3.4518 2.7216 0 0 0-1.9583-0.48111 3.4518 2.7216 0 0 0-3.4518 2.7214 3.4518 2.7216 0 0 0 3.4518 2.7214 3.4518 2.7216 0 0 0 3.4518-2.7214v-25.797a0.74743 0.74743 0 0 0-0.76779-0.74794z" color="#000000" color-rendering="auto" dominant-baseline="auto" fill="#603a3a" image-rendering="auto" shape-rendering="auto" solid-color="#000000" style="font-feature-settings:normal;font-variant-alternates:normal;font-variant-caps:normal;font-variant-ligatures:normal;font-variant-numeric:normal;font-variant-position:normal;isolation:auto;mix-blend-mode:normal;shape-padding:0;text-decoration-color:#000000;text-decoration-line:none;text-decoration-style:solid;text-indent:0;text-orientation:mixed;text-transform:none;white-space:normal"/>
</svg>
