<?xml version="1.0" encoding="UTF-8" standalone="no"?>
<!-- Created with Inkscape (http://www.inkscape.org/) -->

<svg
   xmlns:dc="http://purl.org/dc/elements/1.1/"
   xmlns:cc="http://creativecommons.org/ns#"
   xmlns:rdf="http://www.w3.org/1999/02/22-rdf-syntax-ns#"
   xmlns:svg="http://www.w3.org/2000/svg"
   xmlns="http://www.w3.org/2000/svg"
   xmlns:sodipodi="http://sodipodi.sourceforge.net/DTD/sodipodi-0.dtd"
   xmlns:inkscape="http://www.inkscape.org/namespaces/inkscape"
   width="1511.811"
   height="1511.811"
   viewBox="0 0 400 400"
   version="1.1"
   id="svg8"
   inkscape:version="0.92.3 (2405546, 2018-03-11)"
   sodipodi:docname="source.svg">
  <defs
     id="defs2">
    <inkscape:path-effect
       effect="bspline"
       id="path-effect4048"
       is_visible="true"
       weight="33.333333"
       steps="2"
       helper_size="0"
       apply_no_weight="true"
       apply_with_weight="true"
       only_selected="false" />
    <inkscape:path-effect
       effect="bspline"
       id="path-effect4040"
       is_visible="true"
       weight="33.333333"
       steps="2"
       helper_size="0"
       apply_no_weight="true"
       apply_with_weight="true"
       only_selected="false" />
    <inkscape:path-effect
       effect="bspline"
       id="path-effect3367"
       is_visible="true"
       weight="33.333333"
       steps="2"
       helper_size="0"
       apply_no_weight="true"
       apply_with_weight="true"
       only_selected="false" />
    <inkscape:path-effect
       effect="bspline"
       id="path-effect3363"
       is_visible="true"
       weight="33.333333"
       steps="2"
       helper_size="0"
       apply_no_weight="true"
       apply_with_weight="true"
       only_selected="false" />
    <inkscape:path-effect
       only_selected="false"
       apply_with_weight="true"
       apply_no_weight="true"
       helper_size="0"
       steps="2"
       weight="33.333333"
       is_visible="true"
       id="path-effect3359"
       effect="bspline" />
    <inkscape:path-effect
       effect="bspline"
       id="path-effect3355"
       is_visible="true"
       weight="33.333333"
       steps="2"
       helper_size="0"
       apply_no_weight="true"
       apply_with_weight="true"
       only_selected="false" />
    <inkscape:path-effect
       only_selected="false"
       apply_with_weight="true"
       apply_no_weight="true"
       helper_size="0"
       steps="2"
       weight="33.333333"
       is_visible="true"
       id="path-effect3351"
       effect="bspline" />
    <inkscape:path-effect
       effect="bspline"
       id="path-effect3347"
       is_visible="true"
       weight="33.333333"
       steps="2"
       helper_size="0"
       apply_no_weight="true"
       apply_with_weight="true"
       only_selected="false" />
    <inkscape:path-effect
       effect="bspline"
       id="path-effect3343"
       is_visible="true"
       weight="33.333333"
       steps="2"
       helper_size="0"
       apply_no_weight="true"
       apply_with_weight="true"
       only_selected="false" />
    <inkscape:path-effect
       only_selected="false"
       apply_with_weight="true"
       apply_no_weight="true"
       helper_size="0"
       steps="2"
       weight="33.333333"
       is_visible="true"
       id="path-effect3339"
       effect="bspline" />
    <inkscape:path-effect
       effect="bspline"
       id="path-effect3335"
       is_visible="true"
       weight="33.333333"
       steps="2"
       helper_size="0"
       apply_no_weight="true"
       apply_with_weight="true"
       only_selected="false" />
    <inkscape:path-effect
       only_selected="false"
       apply_with_weight="true"
       apply_no_weight="true"
       helper_size="0"
       steps="2"
       weight="33.333333"
       is_visible="true"
       id="path-effect3331"
       effect="bspline" />
    <inkscape:path-effect
       effect="bspline"
       id="path-effect3327"
       is_visible="true"
       weight="33.333333"
       steps="2"
       helper_size="0"
       apply_no_weight="true"
       apply_with_weight="true"
       only_selected="false" />
    <inkscape:path-effect
       only_selected="false"
       apply_with_weight="true"
       apply_no_weight="true"
       helper_size="0"
       steps="2"
       weight="33.333333"
       is_visible="true"
       id="path-effect3323"
       effect="bspline" />
    <inkscape:path-effect
       effect="bspline"
       id="path-effect3319"
       is_visible="true"
       weight="33.333333"
       steps="2"
       helper_size="0"
       apply_no_weight="true"
       apply_with_weight="true"
       only_selected="false" />
    <inkscape:path-effect
       effect="bspline"
       id="path-effect3315"
       is_visible="true"
       weight="33.333333"
       steps="2"
       helper_size="0"
       apply_no_weight="true"
       apply_with_weight="true"
       only_selected="false" />
    <inkscape:path-effect
       only_selected="false"
       apply_with_weight="true"
       apply_no_weight="true"
       helper_size="0"
       steps="2"
       weight="33.333333"
       is_visible="true"
       id="path-effect3297"
       effect="bspline" />
    <inkscape:path-effect
       effect="bspline"
       id="path-effect3293"
       is_visible="true"
       weight="33.333333"
       steps="2"
       helper_size="0"
       apply_no_weight="true"
       apply_with_weight="true"
       only_selected="false" />
  </defs>
  <sodipodi:namedview
     id="base"
     pagecolor="#ffffff"
     bordercolor="#666666"
     borderopacity="1.0"
     inkscape:pageopacity="0.0"
     inkscape:pageshadow="2"
     inkscape:zoom="2.8"
     inkscape:cx="578.94736"
     inkscape:cy="1191.5571"
     inkscape:document-units="px"
     inkscape:current-layer="layer2"
     showgrid="false"
     inkscape:window-width="1600"
     inkscape:window-height="847"
     inkscape:window-x="1358"
     inkscape:window-y="-8"
     inkscape:window-maximized="1"
     units="px"
     inkscape:object-paths="true"
     inkscape:snap-intersection-paths="true"
     inkscape:snap-smooth-nodes="true"
     inkscape:snap-midpoints="true"
     inkscape:snap-object-midpoints="true"
     inkscape:snap-center="true"
     inkscape:snap-text-baseline="true"
     inkscape:snap-page="true"
     inkscape:snap-bbox="false"
     inkscape:bbox-paths="true"
     inkscape:bbox-nodes="true"
     inkscape:snap-bbox-edge-midpoints="true"
     inkscape:snap-bbox-midpoints="true"
     inkscape:snap-global="true"
     inkscape:object-nodes="true" />
  <metadata
     id="metadata5">
    <rdf:RDF>
      <cc:Work
         rdf:about="">
        <dc:format>image/svg+xml</dc:format>
        <dc:type
           rdf:resource="http://purl.org/dc/dcmitype/StillImage" />
        <dc:title />
      </cc:Work>
    </rdf:RDF>
  </metadata>
  <g
     inkscape:label="BG"
     inkscape:groupmode="layer"
     id="layer1"
     transform="translate(0,103)"
     sodipodi:insensitive="true">
    <rect
       style="opacity:1;fill:#885923;fill-opacity:1;stroke:none;stroke-width:2.64583325;stroke-miterlimit:4;stroke-dasharray:none;stroke-opacity:1"
       id="rect812"
       width="400"
       height="400"
       x="0"
       y="-103" />
    <rect
       transform="translate(0,-103)"
       style="opacity:1;fill:#ffffff;fill-opacity:1;stroke:none;stroke-width:0.79374999;stroke-linecap:butt;stroke-linejoin:round;stroke-miterlimit:4;stroke-dasharray:none;stroke-opacity:1"
       id="rect880"
       width="400"
       height="141.3631"
       x="0"
       y="258.6369" />
  </g>
  <g
     inkscape:groupmode="layer"
     id="layer2"
     inkscape:label="Assets">
    <rect
       style="opacity:1;fill:#e4d77e;fill-opacity:1;stroke:none;stroke-width:2.64583325;stroke-miterlimit:4;stroke-dasharray:none;stroke-opacity:1"
       id="rect815"
       width="50"
       height="50"
       x="-121.70832"
       y="53.666676" />
    <g
       id="g1518">
      <g
         id="g2710">
        <g
           style="stroke-width:1.05937445"
           id="g849"
           transform="matrix(0.99833634,0,0,0.9974922,0.06068404,0.10575885)">
          <rect
             y="34.538952"
             x="25.324404"
             height="15.266111"
             width="22.300594"
             id="rect817"
             style="opacity:1;fill:none;fill-opacity:1;stroke:#e4d77e;stroke-width:2.12109089;stroke-linecap:round;stroke-linejoin:round;stroke-miterlimit:4;stroke-dasharray:none;stroke-opacity:1" />
          <rect
             y="39.766582"
             x="31.196127"
             height="4.8108511"
             width="10.557146"
             id="rect819"
             style="opacity:1;fill:none;fill-opacity:1;stroke:#e4d77e;stroke-width:1.4014641;stroke-linecap:round;stroke-linejoin:round;stroke-miterlimit:4;stroke-dasharray:none;stroke-opacity:1" />
        </g>
        <path
           style="opacity:1;fill:none;fill-opacity:1;stroke:#e4d77e;stroke-width:2.11666665;stroke-linecap:round;stroke-linejoin:round;stroke-miterlimit:4;stroke-dasharray:none;stroke-opacity:1"
           d="m 20.652613,34.53895 31.644181,3e-6 -15.822091,-11.2098 z"
           id="path829"
           inkscape:connector-curvature="0" />
      </g>
    </g>
    <g
       id="g892"
       transform="translate(-41.577381,252.48809)">
      <rect
         y="30.055805"
         x="64.822922"
         height="21.166666"
         width="2.1166666"
         id="rect867"
         style="opacity:1;fill:#e4d77e;fill-opacity:1;stroke:none;stroke-width:2.11666656;stroke-linecap:square;stroke-linejoin:miter;stroke-miterlimit:4;stroke-dasharray:none;stroke-opacity:1" />
      <rect
         transform="rotate(90)"
         style="opacity:1;fill:#e4d77e;fill-opacity:1;stroke:none;stroke-width:2.11666656;stroke-linecap:square;stroke-linejoin:miter;stroke-miterlimit:4;stroke-dasharray:none;stroke-opacity:1"
         id="rect869"
         width="2.1166666"
         height="21.166666"
         x="49.105808"
         y="-85.989586" />
      <rect
         y="-85.989586"
         x="30.055805"
         height="21.166666"
         width="2.1166666"
         id="rect871"
         style="opacity:1;fill:#e4d77e;fill-opacity:1;stroke:none;stroke-width:2.11666656;stroke-linecap:square;stroke-linejoin:miter;stroke-miterlimit:4;stroke-dasharray:none;stroke-opacity:1"
         transform="rotate(90)" />
      <rect
         transform="scale(-1)"
         style="opacity:1;fill:#e4d77e;fill-opacity:1;stroke:none;stroke-width:2.11666656;stroke-linecap:square;stroke-linejoin:miter;stroke-miterlimit:4;stroke-dasharray:none;stroke-opacity:1"
         id="rect873"
         width="2.1166666"
         height="21.166666"
         x="-85.989586"
         y="-51.222469" />
      <rect
         transform="rotate(60)"
         style="opacity:1;fill:#e4d77e;fill-opacity:1;stroke:none;stroke-width:2.11666656;stroke-linecap:square;stroke-linejoin:miter;stroke-miterlimit:4;stroke-dasharray:none;stroke-opacity:1"
         id="rect881"
         width="2.1166666"
         height="13.229166"
         x="58.440552"
         y="-54.339558" />
      <rect
         y="-71.612099"
         x="68.740303"
         height="13.229166"
         width="2.1166666"
         id="rect893"
         style="opacity:1;fill:#e4d77e;fill-opacity:1;stroke:none;stroke-width:2.11666656;stroke-linecap:square;stroke-linejoin:miter;stroke-miterlimit:4;stroke-dasharray:none;stroke-opacity:1"
         transform="rotate(60)" />
      <rect
         transform="rotate(90)"
         style="opacity:1;fill:#e4d77e;fill-opacity:1;stroke:none;stroke-width:2.11666656;stroke-linecap:square;stroke-linejoin:miter;stroke-miterlimit:4;stroke-dasharray:none;stroke-opacity:1"
         id="rect895"
         width="2.1166666"
         height="21.166666"
         x="23.441223"
         y="-97.446381" />
      <rect
         y="-44.607887"
         x="-97.446381"
         height="21.166666"
         width="2.1166666"
         id="rect897"
         style="opacity:1;fill:#e4d77e;fill-opacity:1;stroke:none;stroke-width:2.11666656;stroke-linecap:square;stroke-linejoin:miter;stroke-miterlimit:4;stroke-dasharray:none;stroke-opacity:1"
         transform="scale(-1)" />
      <rect
         transform="rotate(60)"
         style="opacity:1;fill:#e4d77e;fill-opacity:1;stroke:none;stroke-width:2.11666656;stroke-linecap:square;stroke-linejoin:miter;stroke-miterlimit:4;stroke-dasharray:none;stroke-opacity:1"
         id="rect899"
         width="2.1166666"
         height="13.229166"
         x="85.238083"
         y="-62.087097" />
    </g>
    <g
       id="g859"
       transform="translate(-9.3544334,-2.9399648)">
      <path
         sodipodi:nodetypes="sscssccccc"
         inkscape:connector-curvature="0"
         id="path845"
         transform="scale(0.26458333)"
         d="m 731.85352,89.265625 c -13.80712,10e-7 -25,11.192875 -25,24.999995 0,13.80712 25,49.82143 25,49.82143 0,0 25,-36.01431 25,-49.82143 0,-13.80712 -11.19288,-24.999994 -25,-24.999995 z m 0,13.130855 c 6.55558,-2.8e-4 11.87029,5.31356 11.87109,11.86914 2.8e-4,6.55634 -5.31475,11.87138 -11.87109,11.8711 -6.55558,-8e-4 -11.86942,-5.31552 -11.86914,-11.8711 8e-4,-6.55481 5.31433,-11.86834 11.86914,-11.86914 z"
         style="opacity:1;fill:#e4d77e;fill-opacity:1;stroke:none;stroke-width:10;stroke-miterlimit:4;stroke-dasharray:none;stroke-opacity:1" />
      <circle
         r="0.9693836"
         cy="30.232777"
         cx="193.63625"
         id="path854"
         style="opacity:1;fill:#e4d77e;fill-opacity:1;stroke:none;stroke-width:2.64583325;stroke-miterlimit:4;stroke-dasharray:none;stroke-opacity:1" />
    </g>
    <g
       id="g903"
       transform="translate(15.100728,-33.141421)">
      <g
         transform="matrix(0.6144669,0,0,0.6144669,42.071528,16.312903)"
         id="g866">
        <path
           inkscape:connector-curvature="0"
           style="opacity:1;fill:#e4d77e;fill-opacity:1;stroke:none;stroke-width:27.20917702;stroke-linecap:round;stroke-miterlimit:4;stroke-dasharray:none;stroke-opacity:1"
           d="m 448.57227,266.45312 a 29.642856,29.642856 0 0 0 -29.64454,29.64454 29.642856,29.642856 0 0 0 29.64454,29.64257 29.642856,29.642856 0 0 0 29.64257,-29.64257 29.642856,29.642856 0 0 0 -29.64257,-29.64454 z m 0,12.16993 a 17.474618,17.474618 0 0 1 17.47461,17.47461 17.474618,17.474618 0 0 1 -17.47461,17.47461 17.474618,17.474618 0 0 1 -17.47461,-17.47461 17.474618,17.474618 0 0 1 17.47461,-17.47461 z"
           transform="scale(0.26458333)"
           id="circle859" />
        <circle
           r="2.6189713"
           cy="78.342262"
           cx="118.68452"
           id="circle861"
           style="opacity:1;fill:#e4d77e;fill-opacity:1;stroke:none;stroke-width:2.40395379;stroke-linecap:round;stroke-miterlimit:4;stroke-dasharray:none;stroke-opacity:1" />
      </g>
      <g
         id="g872"
         transform="matrix(0.6144669,0,0,0.6144669,59.552927,23.494451)">
        <path
           id="path868"
           transform="scale(0.26458333)"
           d="m 448.57227,266.45312 a 29.642856,29.642856 0 0 0 -29.64454,29.64454 29.642856,29.642856 0 0 0 29.64454,29.64257 29.642856,29.642856 0 0 0 29.64257,-29.64257 29.642856,29.642856 0 0 0 -29.64257,-29.64454 z m 0,12.16993 a 17.474618,17.474618 0 0 1 17.47461,17.47461 17.474618,17.474618 0 0 1 -17.47461,17.47461 17.474618,17.474618 0 0 1 -17.47461,-17.47461 17.474618,17.474618 0 0 1 17.47461,-17.47461 z"
           style="opacity:1;fill:#e4d77e;fill-opacity:1;stroke:none;stroke-width:27.20917702;stroke-linecap:round;stroke-miterlimit:4;stroke-dasharray:none;stroke-opacity:1"
           inkscape:connector-curvature="0" />
        <circle
           style="opacity:1;fill:#e4d77e;fill-opacity:1;stroke:none;stroke-width:2.40395379;stroke-linecap:round;stroke-miterlimit:4;stroke-dasharray:none;stroke-opacity:1"
           id="circle870"
           cx="118.68452"
           cy="78.342262"
           r="2.6189713" />
      </g>
      <path
         inkscape:connector-curvature="0"
         id="path880"
         d="m 119.45712,66.282977 8.56559,3.518836"
         style="opacity:1;fill:none;fill-opacity:1;stroke:#e4d77e;stroke-width:2.11666656;stroke-linecap:round;stroke-miterlimit:4;stroke-dasharray:none;stroke-opacity:1" />
      <g
         transform="matrix(0.6144669,0,0,0.6144669,46.934614,32.187903)"
         id="g886">
        <path
           inkscape:connector-curvature="0"
           style="opacity:1;fill:#e4d77e;fill-opacity:1;stroke:none;stroke-width:27.20917702;stroke-linecap:round;stroke-miterlimit:4;stroke-dasharray:none;stroke-opacity:1"
           d="m 448.57227,266.45312 a 29.642856,29.642856 0 0 0 -29.64454,29.64454 29.642856,29.642856 0 0 0 29.64454,29.64257 29.642856,29.642856 0 0 0 29.64257,-29.64257 29.642856,29.642856 0 0 0 -29.64257,-29.64454 z m 0,12.16993 a 17.474618,17.474618 0 0 1 17.47461,17.47461 17.474618,17.474618 0 0 1 -17.47461,17.47461 17.474618,17.474618 0 0 1 -17.47461,-17.47461 17.474618,17.474618 0 0 1 17.47461,-17.47461 z"
           transform="scale(0.26458333)"
           id="path882" />
        <circle
           r="2.6189713"
           cy="78.342262"
           cx="118.68452"
           id="circle884"
           style="opacity:1;fill:#e4d77e;fill-opacity:1;stroke:none;stroke-width:2.40395379;stroke-linecap:round;stroke-miterlimit:4;stroke-dasharray:none;stroke-opacity:1" />
      </g>
      <path
         inkscape:connector-curvature="0"
         id="path890"
         d="m 128.51191,74.367445 -4.68089,3.224926"
         style="opacity:1;fill:none;fill-opacity:1;stroke:#e4d77e;stroke-width:2.11666656;stroke-linecap:round;stroke-miterlimit:4;stroke-dasharray:none;stroke-opacity:1" />
    </g>
    <g
       id="g3380">
      <path
         transform="scale(0.26458333)"
         id="path3311"
         d="m 310.73833,266.09816 c 3.57183,6.07084 5.82894,12.14166 5.09537,18.21237 -1.30905,10.83298 -12.14223,21.66616 -14.17523,32.94488 -2.033,11.27872 4.73427,22.99998 11.50235,34.72263 h 60.69875"
         style="opacity:1;fill:none;fill-opacity:1;stroke:#e4d77e;stroke-width:7.99999952;stroke-linecap:round;stroke-linejoin:round;stroke-miterlimit:4;stroke-dasharray:none;stroke-opacity:1" />
      <path
         transform="scale(0.26458333)"
         id="path3308"
         d="M 376.28204 266.09816 C 372.71022 272.169 370.45311 278.23982 371.18669 284.31053 C 372.49573 295.14351 383.32891 305.97669 385.36192 317.25541 C 387.39493 328.53414 380.62764 340.25539 373.85957 351.97804 "
         style="opacity:1;fill:none;fill-opacity:1;stroke:#e4d77e;stroke-width:7.99999952;stroke-linecap:round;stroke-linejoin:round;stroke-miterlimit:4;stroke-dasharray:none;stroke-opacity:1" />
      <path
         inkscape:original-d="m 93.454613,70.405371 c 2.003362,7.94e-4 4.069096,-2.65e-4 6.103342,0"
         inkscape:path-effect="#path-effect3319"
         inkscape:connector-curvature="0"
         id="path3317"
         d="m 93.454613,70.405371 c 2.003362,0 4.069096,0 6.103342,0"
         style="opacity:1;fill:none;fill-opacity:1;stroke:#e4d77e;stroke-width:1.05833328;stroke-linecap:round;stroke-linejoin:round;stroke-miterlimit:4;stroke-dasharray:none;stroke-opacity:1" />
      <path
         style="opacity:1;fill:none;fill-opacity:1;stroke:#e4d77e;stroke-width:1.05833328;stroke-linecap:round;stroke-linejoin:round;stroke-miterlimit:4;stroke-dasharray:none;stroke-opacity:1"
         d="m 93.454613,75.45474 c 1.554213,0 3.156812,0 4.734983,0"
         id="path3321"
         inkscape:connector-curvature="0"
         inkscape:path-effect="#path-effect3323"
         inkscape:original-d="m 93.454613,75.45474 c 1.554213,7.94e-4 3.156812,-2.65e-4 4.734983,0" />
      <path
         inkscape:original-d="m 93.454613,88.078162 c 2.817657,7.94e-4 5.723036,-2.65e-4 8.584127,0"
         inkscape:path-effect="#path-effect3327"
         inkscape:connector-curvature="0"
         id="path3325"
         d="m 93.454613,88.078162 c 2.817657,0 5.723036,0 8.584127,0"
         style="opacity:1;fill:none;fill-opacity:1;stroke:#e4d77e;stroke-width:1.05833328;stroke-linecap:round;stroke-linejoin:round;stroke-miterlimit:4;stroke-dasharray:none;stroke-opacity:1" />
      <path
         style="opacity:1;fill:none;fill-opacity:1;stroke:#e4d77e;stroke-width:1.05833328;stroke-linecap:round;stroke-linejoin:round;stroke-miterlimit:4;stroke-dasharray:none;stroke-opacity:1"
         d="m 93.454613,77.979424 c 1.871948,0 3.802174,0 5.702977,0"
         id="path3329"
         inkscape:connector-curvature="0"
         inkscape:path-effect="#path-effect3331"
         inkscape:original-d="m 93.454613,77.979424 c 1.871948,7.94e-4 3.802174,-2.65e-4 5.702977,0" />
      <path
         style="opacity:1;fill:none;fill-opacity:1;stroke:#e4d77e;stroke-width:1.05833328;stroke-linecap:round;stroke-linejoin:round;stroke-miterlimit:4;stroke-dasharray:none;stroke-opacity:1"
         d="m 93.454613,90.602846 c 2.460309,0 4.997214,0 7.495457,0"
         id="path3337"
         inkscape:connector-curvature="0"
         inkscape:path-effect="#path-effect3339"
         inkscape:original-d="m 93.454613,90.602846 c 2.460309,7.94e-4 4.997214,-2.65e-4 7.495457,0" />
      <path
         inkscape:original-d="m 93.454613,83.028793 c 2.547891,7.94e-4 5.175106,-2.65e-4 7.762267,0"
         inkscape:path-effect="#path-effect3343"
         inkscape:connector-curvature="0"
         id="path3341"
         d="m 93.454613,83.028793 c 2.547891,0 5.175106,0 7.762267,0"
         style="opacity:1;fill:none;fill-opacity:1;stroke:#e4d77e;stroke-width:1.05833328;stroke-linecap:round;stroke-linejoin:round;stroke-miterlimit:4;stroke-dasharray:none;stroke-opacity:1" />
      <path
         style="opacity:1;fill:none;fill-opacity:1;stroke:#e4d77e;stroke-width:1.05833328;stroke-linecap:round;stroke-linejoin:round;stroke-miterlimit:4;stroke-dasharray:none;stroke-opacity:1"
         d="m 93.454613,85.553478 c 2.791923,0 5.670767,0 8.505727,0"
         id="path3349"
         inkscape:connector-curvature="0"
         inkscape:path-effect="#path-effect3351"
         inkscape:original-d="m 93.454613,85.553478 c 2.791923,7.94e-4 5.670767,-2.65e-4 8.505727,0" />
      <path
         inkscape:original-d="m 93.454613,80.504109 c 2.198745,7.94e-4 4.465942,-2.65e-4 6.698577,0"
         inkscape:path-effect="#path-effect3355"
         inkscape:connector-curvature="0"
         id="path3353"
         d="m 93.454613,80.504109 c 2.198745,0 4.465942,0 6.698577,0"
         style="opacity:1;fill:none;fill-opacity:1;stroke:#e4d77e;stroke-width:1.05833328;stroke-linecap:round;stroke-linejoin:round;stroke-miterlimit:4;stroke-dasharray:none;stroke-opacity:1" />
      <path
         inkscape:original-d="m 93.454613,72.930056 c 1.684973,7.94e-4 3.422403,-2.65e-4 5.133347,0"
         inkscape:path-effect="#path-effect3363"
         inkscape:connector-curvature="0"
         id="path3361"
         d="m 93.454613,72.930056 c 1.684973,0 3.422403,0 5.133347,0"
         style="opacity:1;fill:none;fill-opacity:1;stroke:#e4d77e;stroke-width:1.05833328;stroke-linecap:round;stroke-linejoin:round;stroke-miterlimit:4;stroke-dasharray:none;stroke-opacity:1" />
    </g>
    <path
       style="opacity:1;fill:none;fill-opacity:1;stroke:#e4d77e;stroke-width:2.11666656;stroke-linecap:round;stroke-linejoin:round;stroke-miterlimit:4;stroke-dasharray:none;stroke-opacity:1"
       d="m 228.01749,101.62944 c 1e-5,5.79111 5.79058,11.58168 5.79071,17.37239 1.4e-4,5.79071 -5.7907,11.58155 -5.7907,17.37266 0,5.7911 5.79057,11.58167 5.7907,17.37238 1.3e-4,5.79071 -5.79071,11.58155 -5.79071,17.37265 0,0 0,0 0,0"
       id="path4056"
       inkscape:connector-curvature="0" />
    <path
       inkscape:connector-curvature="0"
       id="path4062"
       d="m 233.80831,101.62923 c 1e-5,5.79111 5.79058,11.58168 5.79071,17.37239 1.4e-4,5.79071 -5.7907,11.58155 -5.7907,17.37266 0,5.7911 5.79057,11.58167 5.7907,17.37238 1.3e-4,5.79071 -5.79071,11.58155 -5.79071,17.37265 0,0 0,0 0,0"
       style="opacity:1;fill:none;fill-opacity:1;stroke:#e4d77e;stroke-width:2.11666656;stroke-linecap:round;stroke-linejoin:round;stroke-miterlimit:4;stroke-dasharray:none;stroke-opacity:1" />
    <g
       style="stroke-width:1.00201607"
       transform="matrix(1.1604127,0,0,0.85829807,-19.455197,40.944502)"
       id="g5366">
      <path
         style="opacity:1;fill:none;fill-opacity:1;stroke:#683431;stroke-width:1.59070053;stroke-linecap:butt;stroke-linejoin:round;stroke-miterlimit:4;stroke-dasharray:none;stroke-opacity:1"
         d="m 86.060786,270.64156 c 0,0 6.831665,8.43033 11.225323,3.60812 8.321571,-9.13324 19.229981,-6.81537 19.229981,-6.81537 l -13.48369,41.1595 h -8.552624 z"
         id="path925"
         inkscape:connector-curvature="0"
         sodipodi:nodetypes="cscccc" />
      <path
         sodipodi:nodetypes="cccccccccccccccccccccccccccccc"
         inkscape:connector-curvature="0"
         style="opacity:1;fill:none;fill-opacity:1;stroke:#683431;stroke-width:2.0040319;stroke-linecap:butt;stroke-linejoin:round;stroke-miterlimit:4;stroke-dasharray:none;stroke-opacity:1"
         d="m 349.16579,1041.0503 -11.84746,36.164 z m 8.71794,0.9576 -16.91866,51.6456 z m 11.37364,-7.1444 -24.64512,75.2313 z m 12.55711,-10.7575 -33.55563,102.4274 z m 11.1508,-6.4696 -41.05945,125.3374 z m 10.36342,-4.0607 -50.0455,152.7622 z m 9.82678,-2.4224 -50.83907,155.1846 z m 9.15507,-0.3779 -50.96094,155.5625 z m 9.0332,0 -50.96289,155.5625 z m 9.03125,0 -50.96094,155.5625 z"
         transform="scale(0.26458333)"
         id="path958" />
    </g>
    <path
       style="opacity:1;fill:none;fill-opacity:1;stroke:#683431;stroke-width:7.99999952;stroke-linecap:butt;stroke-linejoin:round;stroke-miterlimit:4;stroke-dasharray:none;stroke-opacity:1"
       d="M 830.20464 1105.2707 C 830.20464 1105.2707 830.20464 1105.2707 830.20464 1105.2707 L 830.20464 1105.2707 "
       id="path2204"
       transform="scale(0.26458333)" />
    <g
       id="g4094">
      <path
         sodipodi:nodetypes="ccsccsc"
         inkscape:connector-curvature="0"
         id="path2164"
         d="m 141.68945,280.26809 v 28.83842 c 0,0 0,2.21529 22.78432,2.21529 22.78432,0 22.78432,-2.21529 22.78432,-2.21529 v -28.83842 c 0,0 0,-1.43902 -22.7843,-1.43902 -22.78434,0 -22.78434,1.43902 -22.78434,1.43902 z"
         style="opacity:1;fill:none;fill-opacity:1;stroke:#683431;stroke-width:1.58749999;stroke-linecap:butt;stroke-linejoin:round;stroke-miterlimit:4;stroke-dasharray:none;stroke-opacity:1" />
      <path
         sodipodi:nodetypes="czc"
         inkscape:connector-curvature="0"
         id="path2166"
         d="m 141.68961,280.26809 c 0,0 -1.8e-4,1.50562 22.78416,1.50562 22.78432,0 22.78432,-1.50562 22.78432,-1.50562"
         style="opacity:1;fill:none;fill-opacity:1;stroke:#683431;stroke-width:1.58749999;stroke-linecap:butt;stroke-linejoin:round;stroke-miterlimit:4;stroke-dasharray:none;stroke-opacity:1" />
      <path
         id="path2190"
         d="m 186.78705,282.29491 c 0.0124,-0.0169 -0.0187,0.0295 -0.15245,0.1075 -0.26758,0.1561 -0.93438,0.42857 -2.32596,0.69916 -2.1889,0.42569 -6.18165,0.85942 -13.31443,1.02579 v 0.0718 0.98804 c 7.17934,-0.16537 11.22401,-0.60045 13.51752,-1.04643 1.45646,-0.28324 2.21175,-0.56499 2.65617,-0.82426 0.22221,-0.12962 0.3714,-0.25672 0.47284,-0.39481 0.0507,-0.0691 0.0889,-0.14205 0.11317,-0.21288 0.0243,-0.0708 0.0331,-0.19534 0.0331,-0.19534 h -1.05833 c 0,0 0.0102,-0.10787 0.0233,-0.14626 0.0132,-0.0384 0.0288,-0.0639 0.0351,-0.0723 z m 0,2.95487 c 0.0124,-0.0169 -0.0187,0.0294 -0.15245,0.10747 -0.26758,0.1561 -0.93438,0.4286 -2.32596,0.69919 -2.1889,0.42566 -6.18165,0.85939 -13.31443,1.02579 v 1.05986 c 7.17934,-0.16536 11.22401,-0.60041 13.51752,-1.04645 1.45646,-0.28321 2.21175,-0.56496 2.65617,-0.82423 0.22221,-0.12962 0.3714,-0.2562 0.47284,-0.39428 0.0507,-0.069 0.0889,-0.14208 0.11317,-0.21291 0.0243,-0.0708 0.0331,-0.19534 0.0331,-0.19534 h -1.05833 c 0,0 0.0102,-0.1084 0.0233,-0.14677 0.0132,-0.0384 0.0288,-0.0638 0.0351,-0.0723 z m 0,2.95536 c 0.0124,-0.0169 -0.0187,0.0295 -0.15245,0.10748 -0.26758,0.1561 -0.93438,0.42857 -2.32596,0.69919 -2.1889,0.42566 -6.18165,0.85939 -13.31443,1.02579 v 1.05986 c 7.17934,-0.16523 11.22401,-0.60044 13.51752,-1.04642 1.45646,-0.28324 2.21175,-0.56499 2.65617,-0.82426 0.22221,-0.12962 0.3714,-0.2567 0.47284,-0.39481 0.0507,-0.069 0.0889,-0.14214 0.11317,-0.21288 0.0243,-0.0708 0.0331,-0.19741 0.0331,-0.19741 h -1.05833 c 0,0 0.0102,-0.1079 0.0233,-0.14626 0.0132,-0.0384 0.0288,-0.0618 0.0351,-0.0703 z m 0,2.95487 c 0.0124,-0.0169 -0.0187,0.0294 -0.15245,0.10747 -0.26758,0.15611 -0.93438,0.42858 -2.32596,0.69919 -2.1889,0.42564 -6.18165,0.8594 -13.31443,1.02577 v 1.05989 c 7.17934,-0.16592 11.22401,-0.60251 13.51752,-1.04852 1.45646,-0.28323 2.21175,-0.5629 2.65617,-0.82216 0.22221,-0.12962 0.3714,-0.25826 0.47284,-0.39638 0.0507,-0.0691 0.0889,-0.14001 0.11317,-0.21082 0.0243,-0.0708 0.0331,-0.1974 0.0331,-0.1974 h -1.05833 c 0,0 0.0102,-0.1084 0.0233,-0.14677 0.0132,-0.0384 0.0288,-0.0618 0.0351,-0.0703 z m 0,2.95537 c 0.0124,-0.0169 -0.0187,0.0274 -0.15245,0.10541 -0.26758,0.1561 -0.93438,0.4286 -2.32596,0.69919 -2.1889,0.42566 -6.18164,0.86093 -13.31443,1.02785 v 1.0573 c 7.17934,-0.16526 11.22401,-0.59991 13.51752,-1.04595 1.45646,-0.28321 2.21175,-0.56496 2.65617,-0.82423 0.22221,-0.12964 0.3714,-0.25672 0.47284,-0.39481 0.0507,-0.069 0.0889,-0.14002 0.11317,-0.21085 0.0243,-0.0708 0.0331,-0.1974 0.0331,-0.1974 h -1.05833 c 0,0 0.0102,-0.10787 0.0233,-0.14624 0.0132,-0.0384 0.0288,-0.0618 0.0351,-0.0703 z m 0,2.95278 c 0.0124,-0.0169 -0.0187,0.0295 -0.15245,0.1075 -0.26758,0.1561 -0.93438,0.42857 -2.32596,0.69918 -2.1889,0.42564 -6.18165,0.8594 -13.31443,1.02577 v 1.05989 c 7.17934,-0.16539 11.22401,-0.60044 13.51752,-1.04645 1.45646,-0.28321 2.21175,-0.56497 2.65617,-0.82423 0.22221,-0.12965 0.3714,-0.2562 0.47284,-0.39431 0.0507,-0.069 0.0889,-0.14052 0.11317,-0.21135 0.0243,-0.0708 0.0331,-0.19688 0.0331,-0.19688 h -1.05833 c 0,0 0.0102,-0.10839 0.0233,-0.14676 0.0132,-0.0384 0.0288,-0.0638 0.0351,-0.0724 z m 0,2.95539 c 0.0124,-0.0169 -0.0187,0.0294 -0.15245,0.10748 -0.26758,0.1561 -0.93438,0.42857 -2.32596,0.69918 -2.1889,0.42564 -6.18165,0.8594 -13.31443,1.02577 v 1.05939 c 7.17934,-0.16539 11.22401,-0.60047 13.51752,-1.04645 1.45646,-0.28324 2.21175,-0.56497 2.65617,-0.82426 0.22221,-0.12962 0.3714,-0.2562 0.47284,-0.39428 0.0507,-0.069 0.0889,-0.14002 0.11317,-0.21085 0.0243,-0.0708 0.0331,-0.19741 0.0331,-0.19741 h -1.05833 c 0,0 0.0102,-0.10784 0.0233,-0.14623 0.0132,-0.0384 0.0288,-0.0638 0.0351,-0.0723 z m 0,2.95484 c 0.0124,-0.0169 -0.0187,0.0295 -0.15245,0.1075 -0.26758,0.15611 -0.93438,0.42858 -2.32596,0.69919 -2.1889,0.42564 -6.18165,0.85939 -13.31443,1.02576 v 1.0599 c 7.17934,-0.16539 11.22401,-0.60047 13.51752,-1.04646 1.45646,-0.28321 2.21175,-0.56496 2.65617,-0.82423 0.22221,-0.12964 0.3714,-0.25672 0.47284,-0.39481 0.0507,-0.0691 0.0889,-0.14208 0.11317,-0.21291 0.0243,-0.0708 0.0331,-0.19481 0.0331,-0.19481 h -1.05833 c 0,0 0.0102,-0.1084 0.0233,-0.14676 0.0132,-0.0384 0.0288,-0.0639 0.0351,-0.0724 z m 0,2.9554 c 0.0124,-0.0169 -0.0187,0.0294 -0.15245,0.10747 -0.26758,0.15611 -0.93438,0.42857 -2.32596,0.69919 -2.1889,0.42564 -6.18165,0.85939 -13.31443,1.02576 v 1.05937 c 7.17934,-0.16537 11.22401,-0.60047 13.51752,-1.04643 1.45646,-0.28323 2.21175,-0.56499 2.65617,-0.82425 0.22221,-0.12962 0.3714,-0.2562 0.47284,-0.39429 0.0507,-0.0691 0.0889,-0.14208 0.11317,-0.21291 0.0243,-0.0708 0.0331,-0.19534 0.0331,-0.19534 h -1.05833 c 0,0 0.0102,-0.10837 0.0233,-0.14676 0.0132,-0.0384 0.0288,-0.0633 0.0351,-0.0718 z"
         style="color:#000000;font-style:normal;font-variant:normal;font-weight:normal;font-stretch:normal;font-size:medium;line-height:normal;font-family:sans-serif;font-variant-ligatures:normal;font-variant-position:normal;font-variant-caps:normal;font-variant-numeric:normal;font-variant-alternates:normal;font-feature-settings:normal;text-indent:0;text-align:start;text-decoration:none;text-decoration-line:none;text-decoration-style:solid;text-decoration-color:#000000;letter-spacing:normal;word-spacing:normal;text-transform:none;writing-mode:lr-tb;direction:ltr;text-orientation:mixed;dominant-baseline:auto;baseline-shift:baseline;text-anchor:start;white-space:normal;shape-padding:0;clip-rule:nonzero;display:inline;overflow:visible;visibility:visible;opacity:1;isolation:auto;mix-blend-mode:normal;color-interpolation:sRGB;color-interpolation-filters:linearRGB;solid-color:#000000;solid-opacity:1;vector-effect:none;fill:#683431;fill-opacity:1;fill-rule:nonzero;stroke:none;stroke-width:1.05833328;stroke-linecap:butt;stroke-linejoin:round;stroke-miterlimit:4;stroke-dasharray:none;stroke-dashoffset:0;stroke-opacity:1;color-rendering:auto;image-rendering:auto;shape-rendering:auto;text-rendering:auto;enable-background:accumulate"
         inkscape:connector-curvature="0" />
      <path
         style="opacity:1;fill:none;fill-opacity:1;stroke:#683431;stroke-width:1.05833328;stroke-linecap:butt;stroke-linejoin:round;stroke-miterlimit:4;stroke-dasharray:none;stroke-opacity:1"
         d="m 164.47377,281.77372 v 0 c 22.78432,0 22.78432,-2.21531 22.78432,-2.21531"
         id="path2218"
         inkscape:connector-curvature="0" />
      <path
         style="opacity:1;fill:none;fill-opacity:1;stroke:#683431;stroke-width:1.05833328;stroke-linecap:butt;stroke-linejoin:round;stroke-miterlimit:4;stroke-dasharray:none;stroke-opacity:1"
         d="m 164.47377,311.32182 v 0 c 22.78432,0 22.78432,-2.21531 22.78432,-2.21531"
         id="path2224"
         inkscape:connector-curvature="0" />
      <path
         sodipodi:nodetypes="ccczcc"
         inkscape:connector-curvature="0"
         id="path4086"
         d="m 187.25809,280.26809 21.26843,3e-5 v 6.69253 c 0,0 -3.14042,-2.83262 -10.63422,-2.83262 -7.4938,0 -10.63421,2.83262 -10.63421,2.83262 z"
         style="opacity:1;fill:none;fill-opacity:1;stroke:#683431;stroke-width:1.58749999;stroke-linecap:round;stroke-linejoin:round;stroke-miterlimit:4;stroke-dasharray:none;stroke-opacity:1" />
    </g>
    <g
       id="g5468">
      <path
         inkscape:connector-curvature="0"
         id="path5407"
         d="m 261.25541,287.87658 c -1.86115,0.008 -3.9089,0.268 -5.74419,0.86056 -0.56069,1.73669 -1.41883,3.28338 -2.64909,4.29875 -0.0336,0.0277 -0.0684,0.0544 -0.10357,0.0806 a 2.4194029,2.4072215 0 0 1 0.10357,0.68962 2.4194029,2.4072215 0 0 1 -0.10268,0.68965 c 0.035,0.0261 0.0695,0.0527 0.10298,0.0803 1.23024,1.01536 2.08839,2.56203 2.64907,4.29873 3.70628,1.19655 8.28121,1.03192 10.42717,0.19506 3.15153,-1.22901 3.15153,-9.29879 0,-10.52779 -1.08333,-0.42246 -2.78593,-0.67393 -4.68326,-0.6655 z"
         style="opacity:1;fill:none;fill-opacity:1;stroke:#683431;stroke-width:1.05833328;stroke-linecap:round;stroke-linejoin:round;stroke-miterlimit:4;stroke-dasharray:none;stroke-opacity:1" />
      <path
         inkscape:connector-curvature="0"
         id="path5409"
         d="m 248.12679,294.49576 c -0.0351,0.0262 -0.0697,0.0526 -0.10327,0.0803 -3.85573,3.18223 -4.07344,11.57407 -2.84445,14.7256 1.22901,3.15153 9.29849,3.15153 10.5275,0 1.22899,-3.15155 1.01156,-11.54337 -2.84414,-14.7256 -0.0334,-0.0275 -0.0681,-0.054 -0.10298,-0.08 a 2.4194029,2.4072215 0 0 1 -2.31693,1.71703 2.4194029,2.4072215 0 0 1 -2.31573,-1.71732 z"
         style="opacity:1;fill:none;fill-opacity:1;stroke:#683431;stroke-width:1.05833328;stroke-linecap:round;stroke-linejoin:round;stroke-miterlimit:4;stroke-dasharray:none;stroke-opacity:1" />
      <path
         inkscape:connector-curvature="0"
         id="path5411"
         d="m 239.63024,287.87658 c -1.89733,-0.008 -3.59963,0.24304 -4.68297,0.6655 -3.15152,1.22902 -3.15152,9.29878 0,10.52779 2.14596,0.83685 6.72065,1.00147 10.42687,-0.19506 0.56068,-1.7367 1.41911,-3.28337 2.64938,-4.29873 0.0335,-0.0277 0.0682,-0.0541 0.10327,-0.0803 a 2.4194029,2.4072215 0 0 1 -0.10357,-0.68965 2.4194029,2.4072215 0 0 1 0.10268,-0.69021 c -0.0349,-0.026 -0.0694,-0.0525 -0.10268,-0.08 -1.23047,-1.01555 -2.089,-2.56258 -2.64968,-4.29963 -1.83503,-0.5923 -3.88254,-0.85141 -5.7433,-0.85968 z"
         style="opacity:1;fill:none;fill-opacity:1;stroke:#683431;stroke-width:1.05833328;stroke-linecap:round;stroke-linejoin:round;stroke-miterlimit:4;stroke-dasharray:none;stroke-opacity:1" />
      <path
         inkscape:connector-curvature="0"
         id="path5435"
         d="m 250.44252,275.94657 c -2.32465,0 -4.64924,0.78794 -5.26373,2.3637 -1.22901,3.15153 -1.01128,11.54339 2.84443,14.72562 0.0334,0.0275 0.0678,0.054 0.10268,0.08 a 2.4194029,2.4072215 0 0 1 2.31662,-1.71701 2.4194029,2.4072215 0 0 1 2.31604,1.71731 c 0.0351,-0.0262 0.0701,-0.0526 0.10357,-0.0803 3.85572,-3.18223 4.07343,-11.57409 2.84444,-14.72562 -0.6145,-1.57576 -2.93938,-2.3637 -5.26405,-2.3637 z"
         style="opacity:1;fill:none;fill-opacity:1;stroke:#683431;stroke-width:1.05833328;stroke-linecap:round;stroke-linejoin:round;stroke-miterlimit:4;stroke-dasharray:none;stroke-opacity:1" />
      <ellipse
         style="opacity:1;fill:none;fill-opacity:1;stroke:#683431;stroke-width:1.58749999;stroke-linecap:round;stroke-linejoin:round;stroke-miterlimit:4;stroke-dasharray:none;stroke-opacity:1"
         id="path5391"
         cx="250.44263"
         cy="293.806"
         rx="2.4194028"
         ry="2.4072213" />
    </g>
    <g
       id="g973">
      <g
         aria-label="A"
         style="font-style:normal;font-variant:normal;font-weight:bold;font-stretch:normal;font-size:37.99145508px;line-height:1.25;font-family:Roboto;-inkscape-font-specification:'Roboto Bold';letter-spacing:0px;word-spacing:0px;fill:#000000;fill-opacity:1;stroke:none;stroke-width:0.26458332"
         id="text898">
        <path
           d="m 154.75249,90.888296 h -3.58714 l -0.7505,2.156099 h -1.67273 l 3.4981,-9.260417 h 1.44376 l 3.50446,9.260417 h -1.67909 z m -3.13557,-1.297476 h 2.684 l -1.342,-3.841547 z"
           style="font-style:normal;font-variant:normal;font-weight:500;font-stretch:normal;font-size:13.02564144px;font-family:Roboto;-inkscape-font-specification:'Roboto Medium';stroke-width:0.26458332"
           id="path957"
           inkscape:connector-curvature="0" />
      </g>
      <g
         aria-label="Ж"
         style="font-style:normal;font-variant:normal;font-weight:900;font-stretch:normal;font-size:13.02564049px;line-height:1.25;font-family:Roboto;-inkscape-font-specification:'Roboto Heavy';letter-spacing:0px;word-spacing:0px;fill:#000000;fill-opacity:1;stroke:none;stroke-width:0.26458332"
         id="text902">
        <path
           d="m 154.83835,76.180584 h -1.0367 v 3.99419 h -1.60277 v -3.99419 h -1.08123 l -2.27058,3.99419 h -2.00346 l 2.98293,-4.929136 -2.78576,-4.33128 h 1.94621 l 2.21334,3.866987 h 0.99855 v -3.866987 h 1.60277 v 3.866987 h 0.95402 l 2.19426,-3.866987 h 1.93986 l -2.76032,4.318559 2.95748,4.941857 h -1.99709 z"
           style="font-style:normal;font-variant:normal;font-weight:500;font-stretch:normal;font-family:Roboto;-inkscape-font-specification:'Roboto Medium';stroke-width:0.26458332"
           id="path960"
           inkscape:connector-curvature="0" />
      </g>
      <g
         id="text904"
         style="font-style:normal;font-variant:normal;font-weight:500;font-stretch:normal;font-size:14.39517593px;line-height:1.25;font-family:'Noto Sans CJK TC';-inkscape-font-specification:'Noto Sans CJK TC Medium';letter-spacing:0px;word-spacing:0px;fill:#000000;fill-opacity:1;stroke:none;stroke-width:0.26458332"
         aria-label="好">
        <path
           id="path954"
           style="font-style:normal;font-variant:normal;font-weight:500;font-stretch:normal;font-family:'Noto Sans CJK TC';-inkscape-font-specification:'Noto Sans CJK TC Medium';stroke-width:0.26458332"
           d="m 136.08331,79.568188 c -0.0432,1.295566 -0.21593,2.792664 -0.87811,4.289763 -0.47504,-0.403065 -0.96448,-0.80613 -1.42512,-1.16601 0.21593,-0.892501 0.44625,-1.928953 0.64778,-3.008592 z m 2.04411,-0.129557 0.0144,-1.194799 -0.80613,0.04319 v -0.921291 h -1.23799 v 0.993267 l -1.43952,0.07198 c 0.15835,-1.036452 0.3023,-2.05851 0.40307,-2.994196 l -1.30996,-0.07198 c -0.0864,0.964476 -0.23033,2.044115 -0.38867,3.123753 l -1.36754,0.05758 0.14395,1.28117 0.99326,-0.05758 c -0.24471,1.25238 -0.51822,2.461575 -0.79173,3.354076 0.69097,0.575807 1.4827,1.237985 2.24565,1.928953 -0.5902,0.921291 -1.41073,1.813792 -2.54795,2.591132 0.3023,0.215927 0.74855,0.662178 0.95008,0.950081 1.10843,-0.806129 1.94335,-1.69863 2.57674,-2.634317 0.61899,0.590202 1.16601,1.166009 1.54028,1.64105 l 0.8925,-1.122823 c -0.41746,-0.489436 -1.05084,-1.108429 -1.75621,-1.741817 0.83492,-1.799397 1.05085,-3.685165 1.07964,-5.239844 z m 7.12561,1.871373 h -3.03738 v -1.25238 c 1.02206,-0.892501 2.00093,-2.116091 2.6919,-3.166939 l -0.92129,-0.647783 -0.3023,0.07198 h -5.41259 v 1.22359 h 4.4913 c -0.53262,0.791735 -1.23799,1.655446 -1.91456,2.245648 v 1.525888 h -3.18133 v 1.281171 h 3.18133 v 4.433714 c 0,0.215928 -0.0864,0.273509 -0.31669,0.273509 -0.21593,0.01439 -1.02206,0.01439 -1.8138,-0.0144 0.18714,0.35988 0.38867,0.906896 0.46065,1.281171 1.12282,0 1.85698,-0.02879 2.36081,-0.230323 0.51822,-0.201532 0.67657,-0.561412 0.67657,-1.295566 v -4.448109 h 3.03738 z" />
      </g>
    </g>
  </g>
</svg>
