<?xml version="1.0" encoding="UTF-8" standalone="no"?>
<!-- Created with Inkscape (http://www.inkscape.org/) -->

<svg
   xmlns:dc="http://purl.org/dc/elements/1.1/"
   xmlns:cc="http://creativecommons.org/ns#"
   xmlns:rdf="http://www.w3.org/1999/02/22-rdf-syntax-ns#"
   xmlns:svg="http://www.w3.org/2000/svg"
   xmlns="http://www.w3.org/2000/svg"
   xmlns:sodipodi="http://sodipodi.sourceforge.net/DTD/sodipodi-0.dtd"
   xmlns:inkscape="http://www.inkscape.org/namespaces/inkscape"
   width="1511.811"
   height="1511.811"
   viewBox="0 0 400 400"
   version="1.1"
   id="svg8"
   inkscape:version="0.92.3 (2405546, 2018-03-11)"
   sodipodi:docname="source.svg">
  <defs
     id="defs2" />
  <sodipodi:namedview
     id="base"
     pagecolor="#ffffff"
     bordercolor="#666666"
     borderopacity="1.0"
     inkscape:pageopacity="0.0"
     inkscape:pageshadow="2"
     inkscape:zoom="1.4"
     inkscape:cx="560.89538"
     inkscape:cy="1387.0141"
     inkscape:document-units="px"
     inkscape:current-layer="layer2"
     showgrid="false"
     inkscape:window-width="1600"
     inkscape:window-height="847"
     inkscape:window-x="1358"
     inkscape:window-y="-8"
     inkscape:window-maximized="1"
     units="px"
     inkscape:object-paths="true"
     inkscape:snap-intersection-paths="true"
     inkscape:snap-smooth-nodes="true"
     inkscape:snap-midpoints="true"
     inkscape:snap-object-midpoints="true"
     inkscape:snap-center="true"
     inkscape:snap-text-baseline="true"
     inkscape:snap-page="true"
     inkscape:snap-bbox="false"
     inkscape:bbox-paths="true"
     inkscape:bbox-nodes="true"
     inkscape:snap-bbox-edge-midpoints="true"
     inkscape:snap-bbox-midpoints="true"
     inkscape:snap-global="true" />
  <metadata
     id="metadata5">
    <rdf:RDF>
      <cc:Work
         rdf:about="">
        <dc:format>image/svg+xml</dc:format>
        <dc:type
           rdf:resource="http://purl.org/dc/dcmitype/StillImage" />
        <dc:title />
      </cc:Work>
    </rdf:RDF>
  </metadata>
  <g
     inkscape:label="BG"
     inkscape:groupmode="layer"
     id="layer1"
     transform="translate(0,103)"
     sodipodi:insensitive="true">
    <rect
       style="opacity:1;fill:#885923;fill-opacity:1;stroke:none;stroke-width:2.64583325;stroke-miterlimit:4;stroke-dasharray:none;stroke-opacity:1"
       id="rect812"
       width="400"
       height="400"
       x="0"
       y="-103" />
  </g>
  <g
     inkscape:groupmode="layer"
     id="layer2"
     inkscape:label="Assets">
    <rect
       style="opacity:1;fill:#e4d77e;fill-opacity:1;stroke:none;stroke-width:2.64583325;stroke-miterlimit:4;stroke-dasharray:none;stroke-opacity:1"
       id="rect815"
       width="50"
       height="50"
       x="-121.70832"
       y="53.666676" />
    <g
       id="g855">
      <g
         id="g849">
        <rect
           style="opacity:1;fill:none;fill-opacity:1;stroke:#e4d77e;stroke-width:2.11666656;stroke-miterlimit:4;stroke-dasharray:none;stroke-opacity:1"
           id="rect817"
           width="22.300594"
           height="15.266111"
           x="25.324404"
           y="34.538952" />
        <rect
           style="opacity:1;fill:none;fill-opacity:1;stroke:#e4d77e;stroke-width:1.32291663;stroke-miterlimit:4;stroke-dasharray:none;stroke-opacity:1"
           id="rect819"
           width="10.557146"
           height="4.8108511"
           x="31.196127"
           y="39.766582" />
      </g>
      <path
         inkscape:connector-curvature="0"
         id="path829"
         d="m 15.59152,34.53895 41.766367,3e-6 -20.883184,-11.003238 z"
         style="opacity:1;fill:none;fill-opacity:1;stroke:#e4d77e;stroke-width:2.11666656;stroke-linecap:butt;stroke-linejoin:miter;stroke-miterlimit:4;stroke-dasharray:none;stroke-opacity:1" />
    </g>
    <g
       id="g910">
      <rect
         y="30.055805"
         x="64.822922"
         height="21.166666"
         width="2.1166666"
         id="rect867"
         style="opacity:1;fill:#e4d77e;fill-opacity:1;stroke:none;stroke-width:2.11666656;stroke-linecap:square;stroke-linejoin:miter;stroke-miterlimit:4;stroke-dasharray:none;stroke-opacity:1" />
      <rect
         transform="rotate(90)"
         style="opacity:1;fill:#e4d77e;fill-opacity:1;stroke:none;stroke-width:2.11666656;stroke-linecap:square;stroke-linejoin:miter;stroke-miterlimit:4;stroke-dasharray:none;stroke-opacity:1"
         id="rect869"
         width="2.1166666"
         height="21.166666"
         x="49.105808"
         y="-85.989586" />
      <rect
         y="-85.989586"
         x="30.055805"
         height="21.166666"
         width="2.1166666"
         id="rect871"
         style="opacity:1;fill:#e4d77e;fill-opacity:1;stroke:none;stroke-width:2.11666656;stroke-linecap:square;stroke-linejoin:miter;stroke-miterlimit:4;stroke-dasharray:none;stroke-opacity:1"
         transform="rotate(90)" />
      <rect
         transform="scale(-1)"
         style="opacity:1;fill:#e4d77e;fill-opacity:1;stroke:none;stroke-width:2.11666656;stroke-linecap:square;stroke-linejoin:miter;stroke-miterlimit:4;stroke-dasharray:none;stroke-opacity:1"
         id="rect873"
         width="2.1166666"
         height="21.166666"
         x="-85.989586"
         y="-51.222469" />
      <rect
         transform="rotate(60)"
         style="opacity:1;fill:#e4d77e;fill-opacity:1;stroke:none;stroke-width:2.11666656;stroke-linecap:square;stroke-linejoin:miter;stroke-miterlimit:4;stroke-dasharray:none;stroke-opacity:1"
         id="rect881"
         width="2.1166666"
         height="13.229166"
         x="58.440552"
         y="-54.339558" />
      <rect
         y="-71.612099"
         x="68.740303"
         height="13.229166"
         width="2.1166666"
         id="rect893"
         style="opacity:1;fill:#e4d77e;fill-opacity:1;stroke:none;stroke-width:2.11666656;stroke-linecap:square;stroke-linejoin:miter;stroke-miterlimit:4;stroke-dasharray:none;stroke-opacity:1"
         transform="rotate(60)" />
      <rect
         transform="rotate(90)"
         style="opacity:1;fill:#e4d77e;fill-opacity:1;stroke:none;stroke-width:2.11666656;stroke-linecap:square;stroke-linejoin:miter;stroke-miterlimit:4;stroke-dasharray:none;stroke-opacity:1"
         id="rect895"
         width="2.1166666"
         height="21.166666"
         x="23.441223"
         y="-97.446381" />
      <rect
         y="-44.607887"
         x="-97.446381"
         height="21.166666"
         width="2.1166666"
         id="rect897"
         style="opacity:1;fill:#e4d77e;fill-opacity:1;stroke:none;stroke-width:2.11666656;stroke-linecap:square;stroke-linejoin:miter;stroke-miterlimit:4;stroke-dasharray:none;stroke-opacity:1"
         transform="scale(-1)" />
      <rect
         transform="rotate(60)"
         style="opacity:1;fill:#e4d77e;fill-opacity:1;stroke:none;stroke-width:2.11666656;stroke-linecap:square;stroke-linejoin:miter;stroke-miterlimit:4;stroke-dasharray:none;stroke-opacity:1"
         id="rect899"
         width="2.1166666"
         height="13.229166"
         x="85.238083"
         y="-62.087097" />
    </g>
    <g
       id="g877"
       transform="matrix(1.1495293,0,0,1.1495293,-43.12744,-43.814523)"
       style="stroke-width:0.86992127">
      <path
         id="rect950"
         transform="scale(0.26458333)"
         d="m 549.3125,229.69141 -38.35547,11.34961 2.26953,7.67187 56.36133,20.58008 v -0.002 l 4.94336,-1.4629 10.32422,10.86133 56.35547,20.59571 0.006,-0.0176 38.35351,-11.34961 5.85742,-1.73438 1.22657,-3.35742 -6.84571,-2.50195 -56.35351,-20.59375 -0.006,0.0156 -3.2168,0.95118 -3.625,1.07226 -10.93359,-11.5 z m -0.26367,8.42187 43.74023,15.96875 -22.93945,6.78906 -43.74023,-15.9707 z m 54.19922,21.2168 25.58593,26.91406 -39.47265,-14.42578 -5.99024,-6.30078 -0.22656,-0.23828 z m 19.96484,8.83008 42.47461,15.52343 -22.04688,6.52539 -20.84179,-21.92578 z"
         style="opacity:1;fill:#e4d77e;fill-opacity:1;stroke:none;stroke-width:6.95936966;stroke-linecap:square;stroke-linejoin:miter;stroke-miterlimit:4;stroke-dasharray:none;stroke-opacity:1"
         inkscape:connector-curvature="0" />
      <g
         id="g852"
         style="stroke-width:0.86992127">
        <ellipse
           ry="0.25967568"
           rx="0.65294772"
           cy="65.019104"
           cx="144.94536"
           id="ellipse847"
           style="opacity:1;fill:#e4d77e;fill-opacity:1;stroke:none;stroke-width:2.3016665;stroke-miterlimit:4;stroke-dasharray:none;stroke-opacity:1" />
        <path
           style="opacity:1;fill:#e4d77e;fill-opacity:1;stroke:none;stroke-width:8.69921207;stroke-miterlimit:4;stroke-dasharray:none;stroke-opacity:1"
           d="m 547.82422,242.97461 a 6.9564003,2.766543 0 0 0 -6.95508,2.76758 6.9564003,2.766543 0 0 0 6.95508,2.76562 6.9564003,2.766543 0 0 0 6.95703,-2.76562 6.9564003,2.766543 0 0 0 -6.95703,-2.76758 z m 0,1.20508 a 3.925561,1.5611859 0 0 1 3.92578,1.5625 3.925561,1.5611859 0 0 1 -3.92578,1.56054 3.925561,1.5611859 0 0 1 -3.92383,-1.56054 3.925561,1.5611859 0 0 1 3.92383,-1.5625 z"
           transform="scale(0.26458333)"
           id="path838"
           inkscape:connector-curvature="0" />
      </g>
      <g
         transform="translate(25.73489,9.7057019)"
         id="g858"
         style="stroke-width:0.86992127">
        <ellipse
           style="opacity:1;fill:#e4d77e;fill-opacity:1;stroke:none;stroke-width:2.3016665;stroke-miterlimit:4;stroke-dasharray:none;stroke-opacity:1"
           id="ellipse854"
           cx="144.94536"
           cy="65.019104"
           rx="0.65294772"
           ry="0.25967568" />
        <path
           inkscape:connector-curvature="0"
           id="path856"
           transform="scale(0.26458333)"
           d="m 547.82422,242.97461 a 6.9564003,2.766543 0 0 0 -6.95508,2.76758 6.9564003,2.766543 0 0 0 6.95508,2.76562 6.9564003,2.766543 0 0 0 6.95703,-2.76562 6.9564003,2.766543 0 0 0 -6.95703,-2.76758 z m 0,1.20508 a 3.925561,1.5611859 0 0 1 3.92578,1.5625 3.925561,1.5611859 0 0 1 -3.92578,1.56054 3.925561,1.5611859 0 0 1 -3.92383,-1.56054 3.925561,1.5611859 0 0 1 3.92383,-1.5625 z"
           style="opacity:1;fill:#e4d77e;fill-opacity:1;stroke:none;stroke-width:8.69921207;stroke-miterlimit:4;stroke-dasharray:none;stroke-opacity:1" />
      </g>
      <path
         sodipodi:nodetypes="ccc"
         inkscape:connector-curvature="0"
         id="path862"
         d="m 146.05444,65.395257 3.88376,0.760048 2.79993,-0.694707"
         style="opacity:1;fill:none;fill-opacity:1;stroke:#e4d77e;stroke-width:0.34524998;stroke-miterlimit:4;stroke-dasharray:none;stroke-opacity:1" />
      <path
         sodipodi:nodetypes="cc"
         inkscape:connector-curvature="0"
         id="path866"
         d="m 167.47855,74.28308 1.87544,0.280873"
         style="opacity:1;fill:none;fill-opacity:1;stroke:#e4d77e;stroke-width:0.34524998;stroke-miterlimit:4;stroke-dasharray:none;stroke-opacity:1" />
    </g>
    <g
       id="g859"
       transform="translate(-9.3544334,-2.9399648)">
      <path
         sodipodi:nodetypes="sscssccccc"
         inkscape:connector-curvature="0"
         id="path845"
         transform="scale(0.26458333)"
         d="m 731.85352,89.265625 c -13.80712,10e-7 -25,11.192875 -25,24.999995 0,13.80712 25,49.82143 25,49.82143 0,0 25,-36.01431 25,-49.82143 0,-13.80712 -11.19288,-24.999994 -25,-24.999995 z m 0,13.130855 c 6.55558,-2.8e-4 11.87029,5.31356 11.87109,11.86914 2.8e-4,6.55634 -5.31475,11.87138 -11.87109,11.8711 -6.55558,-8e-4 -11.86942,-5.31552 -11.86914,-11.8711 8e-4,-6.55481 5.31433,-11.86834 11.86914,-11.86914 z"
         style="opacity:1;fill:#e4d77e;fill-opacity:1;stroke:none;stroke-width:10;stroke-miterlimit:4;stroke-dasharray:none;stroke-opacity:1" />
      <circle
         r="0.9693836"
         cy="30.232777"
         cx="193.63625"
         id="path854"
         style="opacity:1;fill:#e4d77e;fill-opacity:1;stroke:none;stroke-width:2.64583325;stroke-miterlimit:4;stroke-dasharray:none;stroke-opacity:1" />
    </g>
  </g>
</svg>
